<svg width="24" height="24" viewBox="0 0 24 24" fill="none" xmlns="http://www.w3.org/2000/svg">
<path d="M23.2969 22.5936H22.5938V3.51543C22.5938 3.18036 22.3568 2.89194 22.0286 2.82604L7.91925 0.0135361C7.71323 -0.0263076 7.49836 0.0259111 7.33561 0.159083C7.17286 0.293005 7.07812 0.49213 7.07812 0.702927V9.89043H9.1875C10.3507 9.89043 11.2969 10.8366 11.2969 11.9998V23.9998H15.5156V21.0693C13.9129 20.7426 12.7031 19.3224 12.7031 17.6248C12.7031 15.935 14.0723 12.7029 16.2188 12.7029C18.3652 12.7029 19.7344 15.935 19.7344 17.6248C19.7344 19.3224 18.5246 20.7426 16.9219 21.0693V23.9998H23.2969C23.6855 23.9998 24 23.6853 24 23.2967C24 22.908 23.6855 22.5936 23.2969 22.5936ZM13.4062 8.48418H10.5938C10.2051 8.48418 9.89062 8.16969 9.89062 7.78105C9.89062 7.39241 10.2051 7.07793 10.5938 7.07793H13.4062C13.7949 7.07793 14.1094 7.39241 14.1094 7.78105C14.1094 8.16969 13.7949 8.48418 13.4062 8.48418ZM13.4062 5.67168H10.5938C10.2051 5.67168 9.89062 5.35719 9.89062 4.96855C9.89062 4.57991 10.2051 4.26543 10.5938 4.26543H13.4062C13.7949 4.26543 14.1094 4.57991 14.1094 4.96855C14.1094 5.35719 13.7949 5.67168 13.4062 5.67168ZM19.0312 11.2967H16.2188C15.8301 11.2967 15.5156 10.9822 15.5156 10.5936C15.5156 10.2049 15.8301 9.89043 16.2188 9.89043H19.0312C19.4199 9.89043 19.7344 10.2049 19.7344 10.5936C19.7344 10.9822 19.4199 11.2967 19.0312 11.2967ZM19.0312 8.48418H16.2188C15.8301 8.48418 15.5156 8.16969 15.5156 7.78105C15.5156 7.39241 15.8301 7.07793 16.2188 7.07793H19.0312C19.4199 7.07793 19.7344 7.39241 19.7344 7.78105C19.7344 8.16969 19.4199 8.48418 19.0312 8.48418Z" fill="#A4A5A5"/>
<path d="M18.3281 17.6248C18.3281 16.2364 17.1965 14.1091 16.2188 14.1091C15.241 14.1091 14.1094 16.2364 14.1094 17.6248C14.1094 18.7879 15.0556 19.7341 16.2188 19.7341C17.3819 19.7341 18.3281 18.7879 18.3281 17.6248Z" fill="#A4A5A5"/>
<path d="M9.1875 11.2966H4.21875V6.37476C4.21875 5.98612 3.90427 5.67163 3.51562 5.67163C3.12698 5.67163 2.8125 5.98612 2.8125 6.37476V11.2966H2.10938C1.72106 11.2966 1.40625 11.6113 1.40625 11.9998V22.5935H0.703125C0.314812 22.5935 0 22.9082 0 23.2966C0 23.6849 0.314812 23.9998 0.703125 23.9998H9.89062V11.9998C9.89062 11.6113 9.57581 11.2966 9.1875 11.2966ZM7.07812 21.1404H4.21875C3.83011 21.1404 3.51562 20.8259 3.51562 20.4373C3.51562 20.0486 3.83011 19.7341 4.21875 19.7341H7.07812C7.46677 19.7341 7.78125 20.0486 7.78125 20.4373C7.78125 20.8259 7.46677 21.1404 7.07812 21.1404ZM7.07812 18.3279H4.21875C3.83011 18.3279 3.51562 18.0134 3.51562 17.6248C3.51562 17.2361 3.83011 16.9216 4.21875 16.9216H7.07812C7.46677 16.9216 7.78125 17.2361 7.78125 17.6248C7.78125 18.0134 7.46677 18.3279 7.07812 18.3279ZM7.07812 15.5154H4.21875C3.83011 15.5154 3.51562 15.2009 3.51562 14.8123C3.51562 14.4236 3.83011 14.1091 4.21875 14.1091H7.07812C7.46677 14.1091 7.78125 14.4236 7.78125 14.8123C7.78125 15.2009 7.46677 15.5154 7.07812 15.5154Z" fill="#A4A5A5"/>
</svg>
