<svg width="24" height="24" viewBox="0 0 24 24" fill="none" xmlns="http://www.w3.org/2000/svg">
<path fill-rule="evenodd" clip-rule="evenodd" d="M4 1C4.55 1 5 1.45 5 2V6H7V12H1V6H3V2C3 1.45 3.45 1 4 1ZM11 18.82C9.84 18.4 9 17.3 9 16V14H15V16C15 17.31 14.16 18.41 13 18.82V23H11V18.82ZM1 16C1 17.3 1.84 18.4 3 18.82V23H5V18.82C6.16 18.4 7 17.3 7 16V14H1V16ZM21 2V6H23V12H17V6H19V2C19 1.45 19.45 1 20 1C20.55 1 21 1.45 21 2ZM13 2C13 1.45 12.55 1 12 1C11.45 1 11 1.45 11 2V6H9V12H15V6H13V2ZM19 18.82C17.84 18.4 17 17.3 17 16V14H23V16C23 17.31 22.16 18.41 21 18.82V23H19V18.82Z" fill="#868E96"/>
</svg>
