<svg width="10" height="10" viewBox="0 0 10 10" fill="none" xmlns="http://www.w3.org/2000/svg">
<path d="M8.02709 5.1804C8.02709 5.42526 8.02709 5.66924 8.02709 5.9141C8.02709 6.2836 8.02709 6.6531 8.02709 7.0226C8.02709 7.14547 8.03062 7.26834 8.01471 7.39033C8.0209 7.34348 8.02709 7.29663 8.03328 7.24889C8.01648 7.36735 7.98554 7.48138 7.93958 7.59188C7.95726 7.54944 7.97493 7.50701 7.99261 7.46547C7.94665 7.57243 7.88831 7.6732 7.81759 7.76513C7.84499 7.72977 7.87328 7.69353 7.90068 7.65817C7.82996 7.74922 7.74775 7.83143 7.6567 7.90215C7.69206 7.87475 7.72831 7.84646 7.76367 7.81906C7.67085 7.88977 7.57096 7.949 7.464 7.99408C7.50643 7.9764 7.54886 7.95872 7.59041 7.94104C7.48079 7.98701 7.36588 8.01795 7.24743 8.03475C7.29428 8.02856 7.34113 8.02237 7.38886 8.01618C7.20411 8.04005 7.0114 8.02856 6.82577 8.02856C6.47307 8.02856 6.12124 8.02856 5.76854 8.02856C5.33628 8.02856 4.90313 8.02856 4.47087 8.02856C4.10225 8.02856 3.73275 8.02856 3.36414 8.02856C3.20325 8.02856 3.04237 8.02944 2.88237 8.02856C2.82049 8.02856 2.7595 8.02414 2.6985 8.01618C2.74535 8.02237 2.7922 8.02856 2.83994 8.03475C2.72149 8.01795 2.60745 7.98701 2.49696 7.94104C2.53939 7.95872 2.58182 7.9764 2.62337 7.99408C2.51641 7.94812 2.41563 7.88977 2.3237 7.81906C2.35906 7.84646 2.3953 7.87475 2.43066 7.90215C2.33961 7.83143 2.2574 7.74922 2.18668 7.65817C2.21409 7.69353 2.24237 7.72977 2.26978 7.76513C2.19906 7.67232 2.13983 7.57243 2.09475 7.46547C2.11243 7.5079 2.13011 7.55033 2.14779 7.59188C2.10182 7.48226 2.07088 7.36735 2.05409 7.24889C2.06028 7.29574 2.06646 7.3426 2.07265 7.39033C2.04878 7.20558 2.06028 7.01287 2.06028 6.82724C2.06028 6.47453 2.06028 6.12271 2.06028 5.77001C2.06028 5.33775 2.06028 4.9046 2.06028 4.47234C2.06028 4.10372 2.06028 3.73422 2.06028 3.3656C2.06028 3.20472 2.05939 3.04384 2.06028 2.88384C2.06028 2.82196 2.0647 2.76097 2.07265 2.69997C2.06646 2.74682 2.06028 2.79367 2.05409 2.84141C2.07088 2.72295 2.10182 2.60892 2.14779 2.49843C2.13011 2.54086 2.11243 2.58329 2.09475 2.62483C2.14072 2.51787 2.19906 2.4171 2.26978 2.32517C2.24237 2.36053 2.21409 2.39677 2.18668 2.43213C2.2574 2.34108 2.33961 2.25887 2.43066 2.18815C2.3953 2.21555 2.35906 2.24384 2.3237 2.27125C2.41652 2.20053 2.51641 2.1413 2.62337 2.09622C2.58094 2.1139 2.5385 2.13158 2.49696 2.14926C2.60657 2.10329 2.72149 2.07235 2.83994 2.05556C2.79309 2.06174 2.74624 2.06793 2.6985 2.07412C2.80546 2.05998 2.91331 2.06174 3.02115 2.06174C3.17762 2.06174 3.33408 2.06174 3.49054 2.06174C3.87242 2.06174 4.25518 2.06174 4.63706 2.06174C4.72722 2.06174 4.81827 2.06174 4.90843 2.06174C5.04457 2.06174 5.18689 2.00252 5.28324 1.90616C5.37517 1.81423 5.44412 1.66307 5.43882 1.53136C5.43263 1.39434 5.38755 1.25202 5.28324 1.15656C5.17981 1.06109 5.05164 1.00098 4.90843 1.00098C4.68479 1.00098 4.46114 1.00098 4.23838 1.00098C3.87684 1.00098 3.51529 1.00098 3.15375 1.00098C3.06624 1.00098 2.97784 1.00098 2.89033 1.00098C2.58359 1.00098 2.29364 1.07611 2.01961 1.21136C1.86757 1.2865 1.72702 1.39169 1.60149 1.50484C1.47774 1.61711 1.36989 1.75324 1.2815 1.89379C1.09675 2.1855 1.00216 2.53909 1.00039 2.88295C0.999509 3.00671 1.00039 3.13047 1.00039 3.25511C1.00039 3.55919 1.00039 3.86328 1.00039 4.16737C1.00039 4.55013 1.00039 4.932 1.00039 5.31476C1.00039 5.67365 1.00039 6.03255 1.00039 6.39144C1.00039 6.62481 1.00039 6.85906 1.00039 7.09243C1.00039 7.13044 1.00039 7.16845 1.00039 7.20735C1.00128 7.5353 1.08791 7.86325 1.25144 8.14789C1.58381 8.7269 2.21851 9.08756 2.88325 9.09021C3.02027 9.09109 3.15729 9.09021 3.2943 9.09021C3.60546 9.09021 3.91662 9.09021 4.22778 9.09021C4.61142 9.09021 4.99506 9.09021 5.37871 9.09021C5.73318 9.09021 6.08765 9.09021 6.44213 9.09021C6.66577 9.09021 6.88942 9.09021 7.11306 9.09021C7.50289 9.09021 7.89007 9.01242 8.2198 8.79319C8.50001 8.60756 8.74753 8.35209 8.89073 8.04447C8.96322 7.88801 9.02686 7.72801 9.05338 7.55652C9.07194 7.43718 9.08786 7.31784 9.08786 7.19674C9.08786 6.9342 9.08786 6.67254 9.08786 6.41C9.08786 6.06172 9.08786 5.71432 9.08786 5.36603C9.08786 5.30415 9.08786 5.24316 9.08786 5.18128C9.08786 5.04515 9.02863 4.90283 8.93228 4.80648C8.84034 4.71454 8.68918 4.6456 8.55747 4.6509C8.42046 4.65709 8.27814 4.70217 8.18267 4.80648C8.0872 4.90902 8.02709 5.03631 8.02709 5.1804Z" fill="#5A79A8" stroke="#5A79A8" stroke-width="0.3"/>
<path d="M6.59512 2.06077C6.81612 2.06077 7.03799 2.06077 7.25899 2.06077C7.61169 2.06077 7.96351 2.06077 8.31622 2.06077C8.39666 2.06077 8.4771 2.06077 8.55754 2.06077C8.69367 2.06077 8.83599 2.00154 8.93235 1.90519C9.02428 1.81325 9.09323 1.6621 9.08793 1.53038C9.08174 1.39337 9.03666 1.25105 8.93235 1.15558C8.82892 1.06011 8.70075 1 8.55754 1C8.33655 1 8.11467 1 7.89368 1C7.54097 1 7.18915 1 6.83645 1C6.75601 1 6.67556 1 6.59512 1C6.45899 1 6.31667 1.05923 6.22032 1.15558C6.12839 1.24751 6.05944 1.39867 6.06474 1.53038C6.07093 1.6674 6.11601 1.80972 6.22032 1.90519C6.32374 2.00066 6.45104 2.06077 6.59512 2.06077Z" fill="#5A79A8" stroke="#5A79A8" stroke-width="0.3"/>
<path d="M9.08811 3.49309C9.08811 3.2721 9.08811 3.05022 9.08811 2.82923C9.08811 2.47652 9.08811 2.1247 9.08811 1.77199C9.08811 1.69155 9.08811 1.61111 9.08811 1.53067C9.08811 1.39454 9.02888 1.25222 8.93253 1.15587C8.8406 1.06393 8.68944 0.994983 8.55773 1.00029C8.42071 1.00647 8.27839 1.05156 8.18292 1.15587C8.08745 1.25929 8.02734 1.38747 8.02734 1.53067C8.02734 1.75166 8.02734 1.97354 8.02734 2.19453C8.02734 2.54724 8.02734 2.89906 8.02734 3.25176C8.02734 3.33221 8.02734 3.41265 8.02734 3.49309C8.02734 3.62922 8.08657 3.77154 8.18292 3.86789C8.27486 3.95983 8.42602 4.02878 8.55773 4.02347C8.69474 4.01728 8.83706 3.9722 8.93253 3.86789C9.028 3.76447 9.08811 3.63718 9.08811 3.49309Z" fill="#5A79A8" stroke="#5A79A8" stroke-width="0.3"/>
<path d="M5.4257 5.41229C5.54238 5.29561 5.65995 5.17804 5.77663 5.06136C6.05508 4.7829 6.33442 4.50357 6.61287 4.22512C6.94966 3.88832 7.28646 3.55153 7.62414 3.21385C7.91673 2.92126 8.20844 2.62955 8.50104 2.33695C8.64247 2.19552 8.78656 2.05497 8.92623 1.91176C8.92799 1.90999 8.92976 1.90823 8.93241 1.90557C9.02877 1.80922 9.08799 1.6669 9.08799 1.53077C9.08799 1.40083 9.03054 1.24525 8.93241 1.15596C8.83164 1.06315 8.69905 0.994198 8.55761 1.00039C8.41706 1.00657 8.28446 1.05431 8.18281 1.15596C8.06612 1.27265 7.94855 1.39022 7.83187 1.5069C7.55342 1.78535 7.27408 2.06469 6.99563 2.34314C6.65884 2.67993 6.32204 3.01673 5.98437 3.3544C5.69177 3.647 5.40006 3.93871 5.10747 4.23131C4.96603 4.37274 4.82194 4.51329 4.68227 4.6565C4.68051 4.65826 4.67874 4.66003 4.67609 4.66268C4.57973 4.75904 4.52051 4.90136 4.52051 5.03749C4.52051 5.16743 4.57797 5.32301 4.67609 5.41229C4.77686 5.50511 4.90946 5.57406 5.05089 5.56787C5.19144 5.56168 5.32492 5.51395 5.4257 5.41229Z" fill="#5A79A8" stroke="#5A79A8" stroke-width="0.3"/>
</svg>
