<svg width="25" height="25" viewBox="0 0 25 25" fill="none" xmlns="http://www.w3.org/2000/svg">
<path d="M14.0347 16L14.0347 15.21L13.7647 14.93C12.6247 15.91 11.1447 16.5 9.53467 16.5C5.94467 16.5 3.03467 13.59 3.03467 10C3.03467 6.41 5.94467 3.5 9.53467 3.5C13.1247 3.5 16.0347 6.41 16.0347 10C16.0347 11.61 15.4447 13.09 14.4647 14.23L14.7447 14.5L15.5347 14.5L20.5247 19.5L19.0347 20.99L14.0347 16ZM14.0347 10C14.0347 7.51 12.0247 5.5 9.53467 5.5C7.04467 5.5 5.03467 7.51 5.03467 10C5.03467 12.49 7.04467 14.5 9.53467 14.5C12.0247 14.5 14.0347 12.49 14.0347 10Z" fill="black" fill-opacity="0.54"/>
</svg>
