<svg width="65" height="65" viewBox="0 0 65 65" fill="none" xmlns="http://www.w3.org/2000/svg">
<mask id="mask0" mask-type="alpha" maskUnits="userSpaceOnUse" x="0" y="0" width="65" height="65">
<rect x="0.307129" y="0.75708" width="64" height="64" fill="#C4C4C4"/>
</mask>
<g mask="url(#mask0)">
<path d="M41.2738 16.725C44.1909 18.4638 44.3902 20.5742 47.8795 23.0908C48.2917 23.3894 47.2994 23.9977 47.1705 24.4745C46.9893 25.1472 45.417 24.3137 44.7181 24.4C44.0193 24.4863 43.3055 24.2968 42.6212 24.0919C38.8722 22.9665 33.3211 21.1222 30.9185 17.7757C30.3187 16.9395 26.1115 11.8843 27.4027 11.7232C31.0826 11.2612 34.0325 14.8105 35.17 15.1886C37.6475 16.0103 38.2725 14.936 41.2738 16.725Z" fill="#AD3E3B"/>
<path d="M35.3126 19.9355C30.9578 17.776 28.4607 8.34562 20.1472 11.0706C11.8337 13.7955 4.73699 28.3587 5.37383 36.6621C6.01067 44.9656 15.0335 51.7075 21.4302 55.0668C28.9013 58.9887 41.7674 61.1884 48.9123 49.7881C55.1609 39.814 57.0859 29.0694 48.0485 23.5549C42.5452 20.1939 42.445 23.4714 35.3126 19.9355Z" fill="#D34D46"/>
<path d="M52.4956 27.9069C52.4435 32.6052 50.3819 37.901 47.1895 42.9962C40.044 54.4016 27.174 52.2013 19.7006 48.2781C14.7887 45.7003 8.33134 41.1284 5.30728 35.387C5.30177 35.8198 5.31435 36.241 5.34426 36.648C5.9812 44.9544 15.0067 51.6986 21.4053 55.059C28.8787 58.9822 41.7488 61.1826 48.896 49.7781C53.7597 42.0092 56.0028 33.7764 52.4956 27.9069Z" fill="#AD3E3B"/>
<path opacity="0.27" d="M20.691 16.9848C18.6521 17.7746 16.9664 19.3096 15.808 21.1535C15.1328 22.2277 14.617 23.4625 14.6836 24.7519C14.7502 26.0413 15.5146 27.3759 16.7392 27.8262C17.0526 27.942 17.3946 27.9964 17.7149 27.9256C18.1666 27.8258 18.5185 27.498 18.8496 27.1825C20.4021 25.6956 22.0517 24.1636 24.1502 23.6159C25.1514 23.3538 26.2142 23.3303 27.2059 23.0332C28.1975 22.7361 29.1651 22.068 29.3809 21.0553C29.7135 19.4911 28.1042 17.6597 26.7826 16.9966C24.9599 16.0784 22.4837 16.2923 20.691 16.9848Z" fill="white"/>
<path opacity="0.27" d="M14.7363 29.5407C13.8943 29.077 12.7624 29.4998 12.325 30.325C11.8867 31.1517 12.0767 32.2336 12.6424 33.0137C12.942 33.4261 13.386 33.7905 13.8892 33.7869C14.2521 33.7845 14.5819 33.5898 14.8531 33.3577C15.357 32.9287 15.7344 32.3344 15.8191 31.6724C15.9047 31.0088 15.6693 30.2829 15.1459 29.8419L14.7363 29.5407Z" fill="white"/>
<path d="M34.5025 18.9704C34.5025 18.9704 37.8899 14.0689 40.2034 12.0336C42.5142 9.99888 47.5646 7.66048 47.5646 7.66048L48.95 9.76267C48.95 9.76267 44.9105 10.6 41.849 13.1115C39.7112 14.8668 35.6363 19.7132 35.6363 19.7132L34.5025 18.9704Z" fill="#60443E"/>
<path d="M41.84 12.9926C41.84 12.9926 48.8922 11.2306 53.487 13.7702C59.6364 17.1715 63.4774 21.6416 63.4774 21.6416C63.4774 21.6416 56.3916 25.0355 51.0729 22.954C45.7559 20.8735 40.4072 14.3184 40.4072 14.3184L41.84 12.9926Z" fill="#436B49"/>
<path opacity="0.27" d="M50.3497 15.1999C50.2498 15.2353 50.1468 15.2798 50.0895 15.367C50.015 15.4838 50.0388 15.6503 50.0894 15.8018C50.2605 16.3055 50.697 16.727 51.1692 17.0086C51.6405 17.2918 52.1548 17.4616 52.6565 17.657C53.8267 18.1164 54.96 18.7413 56.0057 19.5017C56.376 19.7711 56.746 20.0646 57.1646 20.2038C58.4688 20.6393 58.4779 19.2453 58.1073 18.3379C57.7623 17.4921 57.1205 17.1469 56.341 16.7417C54.5058 15.7931 52.2086 14.5491 50.3497 15.1999Z" fill="white"/>
</g>
</svg>
