<svg width="78" height="69" viewBox="0 0 78 69" fill="none" xmlns="http://www.w3.org/2000/svg">
<path d="M24.8904 40.8212H45.2C46.2585 40.8212 47.186 41.5292 47.465 42.5501C47.7441 43.5711 47.3057 44.6525 46.3946 45.1911C37.5457 50.4198 32.9493 56.5192 32.343 63.8376C32.1316 66.3775 29.8694 68.4062 27.3014 68.3726C24.6811 68.3308 22.2263 67.2804 20.3877 65.4148C18.5477 63.5475 17.5336 61.0747 17.5327 58.4522C17.5327 58.4519 17.5327 58.4515 17.5327 58.4512V57.6623C17.5327 51.2561 19.4302 47.1714 22.9313 41.8748C23.3664 41.2169 24.1019 40.8212 24.8904 40.8212Z" fill="#FFC380"/>
<path d="M-0.000118256 38.1596C-0.000118256 42.2165 3.30035 45.5171 7.35738 45.5171L45.1997 45.5171C45.6202 45.5171 46.033 45.4043 46.3947 45.1902C49.0511 43.6196 51.7333 42.3266 53.8885 41.2874C54.6402 40.9251 55.3502 40.5827 55.996 40.2599C56.7914 39.8621 57.2939 39.0491 57.2939 38.1596L57.2939 8.1035C57.2939 7.21396 56.7914 6.401 55.996 6.00319C46.508 1.2599 38.6211 0.68631 29.4241 0.68631C27.9999 0.68631 26.5433 0.700058 25.0455 0.714119C23.3889 0.729744 21.6763 0.745991 19.8807 0.745991H12.4574C8.40051 0.745991 5.09988 4.04646 5.09988 8.1035C5.09988 9.46756 5.47285 10.746 6.12254 11.8424C4.00863 13.1365 2.5952 15.4672 2.5952 18.1222C2.5952 19.4863 2.96816 20.7647 3.61785 21.8612C1.50394 23.1552 0.0905075 25.486 0.0905075 28.141C0.0905075 30.0491 0.820667 31.7899 2.01614 33.0985C0.71426 34.4705 -0.000118256 36.2601 -0.000118256 38.1596Z" fill="#FFCF99"/>
<path d="M62.6485 13.0835V0.716637H67.3447V13.0835C67.3447 14.3796 66.2927 15.4316 64.9966 15.4316C63.7005 15.4316 62.6485 14.3796 62.6485 13.0835Z" fill="#73C3FF"/>
<path d="M62.6485 13.0835V0.716637H67.3447V13.0835C67.3447 14.3796 66.2927 15.4316 64.9966 15.4316C63.7005 15.4316 62.6485 14.3796 62.6485 13.0835Z" fill="#73C3FF"/>
<path d="M54.9778 45.5171H75.0152C76.3112 45.5171 77.3633 44.4651 77.3633 43.169V3.09428C77.3633 1.79662 76.3112 0.746151 75.0152 0.716465H59.9872C57.1084 0.746151 54.6116 2.40709 53.4045 4.82099C52.9083 5.80881 52.6297 6.9249 52.6297 8.10365V43.169C52.6297 44.4652 53.6817 45.5171 54.9778 45.5171Z" fill="#F25600"/>
<path d="M62.6485 13.2398V0.716327H67.3447V13.2398C67.3447 14.5359 66.2927 15.5879 64.9966 15.5879C63.7005 15.5879 62.6485 14.5359 62.6485 13.2398Z" fill="#FF8B00"/>
</svg>
