<svg width="18" height="18" viewBox="0 0 18 18" fill="none" xmlns="http://www.w3.org/2000/svg">
<path d="M14.5 15C14.5 15.3 14.3 15.5 14 15.5H3C2.7 15.5 2.5 15.3 2.5 15V3.99998C2.5 3.69998 2.7 3.49998 3 3.49998H9.5V2.49998H2.5C1.9 2.49998 1.5 2.89998 1.5 3.49998V15.5C1.5 16.1 1.9 16.5 2.5 16.5H14.5C15.1 16.5 15.5 16.1 15.5 15.5V8.49998H14.5V15ZM16.5 1.99998C16.5 1.89998 16.5 1.79998 16.4 1.69998C16.3 1.59998 16.2 1.59998 16.1 1.59998H11.1C10.8 1.59998 10.6 1.79998 10.6 2.09998C10.6 2.39998 10.8 2.59998 11.1 2.59998H14.9L6.8 10.8C6.6 11 6.6 11.3 6.8 11.5C7 11.7 7.3 11.7 7.5 11.5L15.6 3.29998V7.09998C15.6 7.39998 15.8 7.59998 16.1 7.59998C16.4 7.59998 16.6 7.39998 16.6 7.09998L16.5 1.99998Z" fill="white"/>
</svg>
