<svg width="32" height="33" viewBox="0 0 32 33" fill="none" xmlns="http://www.w3.org/2000/svg">
<g clip-path="url(#clip0)">
<path d="M10.7193 8.62041C10.7193 9.22041 10.235 9.72041 9.65371 9.72041H4.95527C4.37402 9.72041 3.88965 9.22041 3.88965 8.62041V7.27041C3.88965 6.67041 4.37402 6.17041 4.95527 6.17041H9.65371C10.235 6.17041 10.7193 6.67041 10.7193 7.27041V8.62041Z" fill="#212528"/>
<path d="M29.6583 8.52021C29.6583 8.82021 29.4161 9.12021 29.0771 9.12021H26.5583C26.2677 9.12021 25.9771 8.87021 25.9771 8.52021V7.82021C25.9771 7.52021 26.2192 7.22021 26.5583 7.22021H29.0771C29.3677 7.22021 29.6583 7.47021 29.6583 7.82021V8.52021Z" fill="#212528"/>
<path d="M31.2568 25.7204C31.2568 27.2204 30.0943 28.4204 28.6412 28.4204H2.87246C1.41934 28.4204 0.256836 27.2204 0.256836 25.7204V24.9204H31.2568V25.7204Z" fill="#212528"/>
<path d="M0.256836 10.6204C0.256836 9.12041 1.41934 7.92041 2.87246 7.92041H28.5928C30.0459 7.92041 31.2084 9.12041 31.2084 10.6204V11.4204H0.256836V10.6204Z" fill="#51575B"/>
<path d="M0.256836 11.3203H31.2568V25.4703H0.256836V11.3203Z" fill="#3E4347"/>
<path d="M26.752 9.57012H11.2036L12.7536 4.17012C12.8989 3.87012 13.5286 3.37012 13.9161 3.27012C16.2896 2.57012 21.6177 2.57012 23.9911 3.27012C24.3786 3.37012 25.0083 3.87012 25.1536 4.17012L26.752 9.57012Z" fill="#51575B"/>
<path d="M25.977 15.3703H11.9302L13.3349 8.07031C13.4317 7.67031 14.0614 7.02031 14.4005 6.87031C16.5317 5.97031 21.3755 5.97031 23.5067 6.87031C23.8458 7.02031 24.427 7.67031 24.5724 8.07031L25.977 15.3703Z" fill="#3E4347"/>
<path d="M29.6099 19.3701C29.6099 25.4701 24.8145 30.3701 18.9536 30.3701C13.0927 30.3701 8.29736 25.4701 8.29736 19.3701C8.29736 13.3201 13.0927 8.37012 18.9536 8.37012C24.863 8.37012 29.6099 13.3201 29.6099 19.3701Z" fill="#788287"/>
<path d="M28.4475 19.3703C28.4475 24.7703 24.185 29.1703 18.9537 29.1703C13.7225 29.1703 9.45996 24.7703 9.45996 19.3703C9.45996 13.9703 13.7225 9.57031 18.9537 9.57031C24.185 9.62031 28.4475 13.9703 28.4475 19.3703Z" fill="#212528"/>
<path d="M18.9538 27.3204C23.2072 27.3204 26.6553 23.7611 26.6553 19.3704C26.6553 14.9797 23.2072 11.4204 18.9538 11.4204C14.7003 11.4204 11.2522 14.9797 11.2522 19.3704C11.2522 23.7611 14.7003 27.3204 18.9538 27.3204Z" fill="#3E4347"/>
<path d="M18.9537 23.6703C21.2543 23.6703 23.1193 21.7451 23.1193 19.3703C23.1193 16.9955 21.2543 15.0703 18.9537 15.0703C16.6531 15.0703 14.7881 16.9955 14.7881 19.3703C14.7881 21.7451 16.6531 23.6703 18.9537 23.6703Z" fill="#212528"/>
<path opacity="0.5" d="M24.6209 16.0204C24.6209 17.3704 23.5553 18.4704 22.2475 18.4704C20.9396 18.4704 19.874 17.3704 19.874 16.0204C19.874 14.6704 20.9396 13.5704 22.2475 13.5704C23.5553 13.5204 24.6209 14.6704 24.6209 16.0204Z" fill="#F5F5F5"/>
<path opacity="0.5" d="M17.5006 22.4706C18.3299 22.4706 19.0021 21.7766 19.0021 20.9206C19.0021 20.0646 18.3299 19.3706 17.5006 19.3706C16.6713 19.3706 15.999 20.0646 15.999 20.9206C15.999 21.7766 16.6713 22.4706 17.5006 22.4706Z" fill="#F5F5F5"/>
<path opacity="0.5" d="M14.8366 24.6202C15.3448 24.6202 15.7569 24.1949 15.7569 23.6702C15.7569 23.1455 15.3448 22.7202 14.8366 22.7202C14.3283 22.7202 13.9163 23.1455 13.9163 23.6702C13.9163 24.1949 14.3283 24.6202 14.8366 24.6202Z" fill="#F5F5F5"/>
<path d="M7.52256 23.2204C7.52256 23.8204 7.03818 24.3204 6.45693 24.3204H2.00068C1.41943 24.3204 0.935059 23.8204 0.935059 23.2204V13.5204C0.935059 12.9204 1.41943 12.4204 2.00068 12.4204H6.45693C7.03818 12.4204 7.52256 12.9204 7.52256 13.5204V23.2204Z" fill="#636C72"/>
<path d="M5.14912 11.4705C6.00516 11.4705 6.69912 10.7542 6.69912 9.87051C6.69912 8.98685 6.00516 8.27051 5.14912 8.27051C4.29308 8.27051 3.59912 8.98685 3.59912 9.87051C3.59912 10.7542 4.29308 11.4705 5.14912 11.4705Z" fill="#212528"/>
</g>
<defs>
<clipPath id="clip0">
<rect width="31" height="32" fill="white" transform="translate(0.256836 0.570312)"/>
</clipPath>
</defs>
</svg>
