<svg width="33" height="34" viewBox="0 0 33 34" fill="none" xmlns="http://www.w3.org/2000/svg">
<path d="M12.2133 6.60352L29.9093 12.725L23.9733 30.974L6.27734 24.8525L12.2133 6.60352Z" fill="#64B5F6"/>
<path d="M13.3892 9.30273L27.3372 13.9915L23.2039 27.0677L9.25586 22.379L13.3892 9.30273Z" fill="#1E88E5"/>
<path d="M7.81787 4.67822L26.1672 8.16247L22.7885 27.0852L4.43921 23.601L7.81787 4.67822Z" fill="#90CAF9"/>
<path d="M9.37655 7.19873L23.8232 9.84561L21.4899 23.3894L7.04321 20.7425L9.37655 7.19873Z" fill="#42A5F5"/>
<path d="M3.23071 3.45605H21.8974V22.7061H3.23071V3.45605Z" fill="#BBDEFB"/>
<path d="M5.23071 5.51855H19.8974V19.2686H5.23071V5.51855Z" fill="#4CAF50"/>
<path d="M11.2307 9.64355C11.2307 8.8873 11.8307 8.26855 12.564 8.26855C13.2974 8.26855 13.8974 8.8873 13.8974 9.64355C13.8974 10.3998 12.564 12.3936 12.564 12.3936C12.564 12.3936 11.2307 10.3998 11.2307 9.64355Z" fill="white"/>
<path d="M13.8974 15.1436C13.8974 15.8998 13.2974 16.5186 12.564 16.5186C11.8307 16.5186 11.2307 15.8998 11.2307 15.1436C11.2307 14.3873 12.564 12.3936 12.564 12.3936C12.564 12.3936 13.8974 14.3873 13.8974 15.1436Z" fill="white"/>
<path d="M9.56399 12.1873C8.89732 11.7748 8.69732 10.9498 9.09732 10.3311C9.49732 9.64358 10.2973 9.43733 10.8973 9.84983C11.564 10.2623 12.564 12.3936 12.564 12.3936C12.564 12.3936 10.2307 12.5998 9.56399 12.1873Z" fill="white"/>
<path d="M15.564 12.5996C16.2306 13.0121 16.4306 13.8371 16.0306 14.4559C15.6306 15.1434 14.8306 15.3496 14.2306 14.9371C13.564 14.5934 12.564 12.3934 12.564 12.3934C12.564 12.3934 14.8973 12.1871 15.564 12.5996Z" fill="white"/>
<path d="M15.564 12.1873C16.2306 11.7748 16.4306 10.9498 16.0306 10.3311C15.6306 9.64358 14.8306 9.43733 14.2306 9.84983C13.564 10.1936 12.564 12.3936 12.564 12.3936C12.564 12.3936 14.8973 12.5998 15.564 12.1873Z" fill="white"/>
<path d="M9.56399 12.5996C8.89732 13.0121 8.69732 13.8371 9.09732 14.4559C9.49732 15.1434 10.2973 15.3496 10.8973 14.9371C11.564 14.5246 12.564 12.3934 12.564 12.3934C12.564 12.3934 10.2307 12.1871 9.56399 12.5996Z" fill="white"/>
<path d="M12.564 13.7686C13.3004 13.7686 13.8974 13.1529 13.8974 12.3936C13.8974 11.6342 13.3004 11.0186 12.564 11.0186C11.8277 11.0186 11.2307 11.6342 11.2307 12.3936C11.2307 13.1529 11.8277 13.7686 12.564 13.7686Z" fill="#FFC107"/>
</svg>
