<svg width="78" height="68" viewBox="0 0 78 68" fill="none" xmlns="http://www.w3.org/2000/svg">
<path d="M52.4729 27.5518H32.1632C31.1048 27.5518 30.1773 26.8438 29.8982 25.8229C29.6192 24.802 30.0576 23.7206 30.9687 23.182C39.8176 17.9532 44.414 11.8538 45.0203 4.53541C45.2317 1.99557 47.4939 -0.0331825 50.0618 0.000411251C52.6821 0.0422863 55.137 1.0926 56.9756 2.95822C58.8156 4.82557 59.8296 7.29838 59.8306 9.92088C59.8306 9.92119 59.8306 9.92151 59.8306 9.92182V10.7107C59.8306 17.117 57.9331 21.2017 54.432 26.4982C53.9968 27.1562 53.2614 27.5518 52.4729 27.5518Z" fill="#C4C4C4"/>
<path d="M77.3634 30.2135C77.3634 26.1566 74.0629 22.856 70.0059 22.856H32.1636C31.7431 22.856 31.3303 22.9688 30.9686 23.1828C28.3121 24.7535 25.63 26.0464 23.4748 27.0856C22.7231 27.448 22.0131 27.7903 21.3673 28.1131C20.5718 28.511 20.0693 29.3239 20.0693 30.2135V60.2696C20.0693 61.1591 20.5718 61.972 21.3673 62.3699C30.8553 67.1131 38.7421 67.6867 47.9392 67.6867C49.3634 67.6867 50.82 67.673 52.3178 67.6589C53.9743 67.6433 55.687 67.6271 57.4826 67.6271H64.9059C68.9628 67.6271 72.2634 64.3266 72.2634 60.2696C72.2634 58.9055 71.8904 57.6271 71.2407 56.5306C73.3546 55.2366 74.7681 52.9058 74.7681 50.2508C74.7681 48.8867 74.3951 47.6083 73.7454 46.5119C75.8593 45.2178 77.2728 42.8871 77.2728 40.2321C77.2728 38.3239 76.5426 36.5831 75.3471 35.2746C76.649 33.9025 77.3634 32.113 77.3634 30.2135Z" fill="#C4C4C4"/>
<path d="M14.7148 55.2895V67.6564H10.0186V55.2895C10.0186 53.9934 11.0706 52.9414 12.3667 52.9414C13.6628 52.9414 14.7148 53.9934 14.7148 55.2895Z" fill="#C4C4C4"/>
<path d="M14.7148 55.2895V67.6564H10.0186V55.2895C10.0186 53.9934 11.0706 52.9414 12.3667 52.9414C13.6628 52.9414 14.7148 53.9934 14.7148 55.2895Z" fill="#C4C4C4"/>
<path d="M22.3855 22.856H2.34812C1.05203 22.856 0 23.908 0 25.2041V65.2788C0 66.5764 1.05203 67.6269 2.34812 67.6566H17.3761C20.2548 67.6269 22.7517 65.966 23.9587 63.5521C24.455 62.5642 24.7336 61.4481 24.7336 60.2694V25.2041C24.7336 23.9078 23.6816 22.856 22.3855 22.856Z" fill="#C4C4C4"/>
<path d="M14.7148 55.1333V67.6567H10.0186V55.1333C10.0186 53.8372 11.0706 52.7852 12.3667 52.7852C13.6628 52.7852 14.7148 53.8372 14.7148 55.1333Z" fill="#C4C4C4"/>
</svg>
