<svg width="512" height="512" viewBox="0 0 512 512" fill="none" xmlns="http://www.w3.org/2000/svg">
<path d="M15 159.886C23.284 159.886 30 153.17 30 144.886V60.031C30 43.472 43.472 30 60.032 30H144.5C152.784 30 159.5 23.284 159.5 15C159.5 6.716 152.784 0 144.5 0H60.032C26.93 0 0 26.93 0 60.031V144.885C0 153.17 6.716 159.886 15 159.886Z" fill="white"/>
<path d="M144.5 482H60.032C43.472 482 30 468.528 30 451.969V367.394C30 359.11 23.284 352.394 15 352.394C6.716 352.394 0 359.11 0 367.394V451.969C0 485.07 26.93 512 60.032 512H144.5C152.784 512 159.5 505.284 159.5 497C159.5 488.716 152.784 482 144.5 482Z" fill="white"/>
<path d="M497 352.394C488.716 352.394 482 359.11 482 367.394V451.969C482 468.529 468.528 482 451.968 482H367.56C359.276 482 352.56 488.716 352.56 497C352.56 505.284 359.276 512 367.56 512H451.968C485.07 512 512 485.07 512 451.969V367.394C512 359.109 505.284 352.394 497 352.394Z" fill="white"/>
<path d="M451.968 0H367.56C359.276 0 352.56 6.716 352.56 15C352.56 23.284 359.276 30 367.56 30H451.968C468.528 30 482 43.472 482 60.031V144.885C482 153.169 488.716 159.885 497 159.885C505.284 159.885 512 153.169 512 144.885V60.031C512 26.93 485.07 0 451.968 0Z" fill="white"/>
<path d="M59.367 78.574V221.154C59.367 231.427 67.725 239.786 77.999 239.786H220.579C230.852 239.786 239.211 231.428 239.211 221.154V78.574C239.211 68.301 230.853 59.942 220.579 59.942H77.999C67.725 59.942 59.367 68.301 59.367 78.574ZM89.367 89.942H209.21V209.786H89.367V89.942Z" fill="white"/>
<path d="M290.854 239.786H433.434C443.707 239.786 452.066 231.428 452.066 221.154V78.574C452.066 68.301 443.708 59.942 433.434 59.942H290.854C280.581 59.942 272.222 68.3 272.222 78.574V221.154C272.222 231.428 280.581 239.786 290.854 239.786ZM302.222 89.942H422.066V209.786H302.222V89.942Z" fill="white"/>
<path d="M220.862 272.307H78.282C68.009 272.307 59.65 280.665 59.65 290.939V433.519C59.65 443.792 68.008 452.151 78.282 452.151H220.862C231.135 452.151 239.494 443.793 239.494 433.519V290.939C239.494 280.665 231.136 272.307 220.862 272.307ZM209.494 422.15H89.65V302.307H209.494V422.15Z" fill="white"/>
<path d="M369.244 437.15C369.244 445.434 375.96 452.15 384.244 452.15H433.718C443.991 452.15 452.35 443.792 452.35 433.518V386.979C452.35 378.695 445.634 371.979 437.35 371.979C429.066 371.979 422.35 378.695 422.35 386.979V422.15H384.244C375.959 422.15 369.244 428.866 369.244 437.15Z" fill="white"/>
<path d="M172.738 108.702H125.84C116.073 108.702 108.127 116.648 108.127 126.415V173.313C108.127 183.081 116.073 191.027 125.84 191.027H172.738C182.506 191.027 190.452 183.081 190.452 173.313V126.415C190.452 116.648 182.505 108.702 172.738 108.702ZM160.452 161.027H138.126V138.702H160.452V161.027Z" fill="white"/>
<path d="M346.138 336.979C346.138 328.695 339.422 321.979 331.138 321.979H295.059C284.626 321.979 276.138 330.467 276.138 340.901V386.979C276.138 395.263 282.854 401.979 291.138 401.979C299.422 401.979 306.138 395.263 306.138 386.979V351.979H331.138C339.422 351.979 346.138 345.264 346.138 336.979Z" fill="white"/>
<path d="M287.222 305.938H378.471V371.979H340.346C332.062 371.979 325.346 378.695 325.346 386.979C325.346 395.263 332.062 401.979 340.346 401.979H392.378C401.252 401.979 408.47 394.76 408.47 385.887V294.86C408.47 284.426 399.982 275.938 389.548 275.938H287.222C278.938 275.938 272.222 282.654 272.222 290.938C272.222 299.222 278.938 305.938 287.222 305.938Z" fill="white"/>
<path d="M437.066 351.979C445.35 351.979 452.066 345.263 452.066 336.979V290.938C452.066 282.654 445.35 275.938 437.066 275.938C428.782 275.938 422.066 282.654 422.066 290.938V336.979C422.066 345.264 428.782 351.979 437.066 351.979Z" fill="white"/>
<path d="M359.138 437.15C359.138 428.866 352.422 422.15 344.138 422.15H287.222C278.938 422.15 272.222 428.866 272.222 437.15C272.222 445.434 278.938 452.15 287.222 452.15H344.138C352.422 452.15 359.138 445.435 359.138 437.15Z" fill="white"/>
<path d="M385.593 108.702H338.695C328.928 108.702 320.982 116.648 320.982 126.415V173.313C320.982 183.081 328.928 191.027 338.695 191.027H385.593C395.361 191.027 403.307 183.081 403.307 173.313V126.415C403.307 116.648 395.361 108.702 385.593 108.702ZM373.307 161.027H350.981V138.702H373.307V161.027Z" fill="white"/>
<path d="M125.839 403.392H172.737C182.505 403.392 190.451 395.446 190.451 385.678V338.78C190.451 329.012 182.505 321.066 172.737 321.066H125.839C116.072 321.066 108.126 329.012 108.126 338.78V385.678C108.126 395.445 116.072 403.392 125.839 403.392ZM138.126 351.065H160.452V373.391H138.126V351.065Z" fill="white"/>
</svg>
