<svg width="245" height="174" viewBox="0 0 245 174" fill="none" xmlns="http://www.w3.org/2000/svg">
<ellipse cx="129.5" cy="155.5" rx="87.5" ry="18.5" fill="#EAE3EF"/>
<ellipse cx="64" cy="146.5" rx="52" ry="9.5" fill="#EAE3EF"/>
<ellipse cx="186" cy="136.5" rx="52" ry="9.5" fill="#EAE3EF"/>
<path d="M212.447 63.456C212.447 63.456 204.347 46.256 182.247 49.456C160.247 52.656 141.147 86.856 161.947 113.456C182.747 140.056 209.647 140.356 229.847 123.556C249.947 106.756 253.447 68.356 212.447 63.456Z" fill="#D64B4D"/>
<path d="M172.547 112.256C153.047 87.2562 168.747 55.4562 189.047 49.1562C186.947 49.0562 184.747 49.1562 182.247 49.5562C160.247 52.7562 141.147 86.9562 161.947 113.556C176.547 132.256 194.247 137.956 210.447 133.856C197.347 133.556 184.047 126.956 172.547 112.256Z" fill="#CC4249"/>
<path d="M214.747 36.3562C214.747 36.3562 216.447 33.7562 217.947 35.7562C219.447 37.7562 222.447 42.1562 221.547 50.2562C220.647 58.3562 220.647 60.2562 220.647 60.2562C220.647 60.2562 229.047 67.3562 236.347 65.3562C236.347 65.3562 232.347 71.0562 223.747 68.7562C223.747 68.7562 223.647 74.0562 229.647 77.4562C229.647 77.4562 219.347 79.0562 213.247 67.3562C213.247 67.3562 204.347 70.4562 196.747 66.6562C196.747 66.6562 204.447 65.3562 207.947 59.9562C207.947 59.9562 197.547 58.6562 197.447 47.4562C197.447 47.4562 205.247 56.2562 214.647 56.5562C214.647 56.5562 218.747 48.2562 217.347 43.0562C216.047 37.7562 214.747 36.3562 214.747 36.3562Z" fill="#5EA27F"/>
<path d="M227.447 94.456C227.447 88.156 236.647 87.656 237.447 93.856C237.447 93.956 237.447 94.056 237.447 94.156C238.547 104.756 224.347 125.656 215.847 124.156C207.447 122.556 227.347 107.956 227.347 97.956C227.447 96.756 227.447 95.556 227.447 94.456Z" fill="white"/>
<path d="M220.816 77.6343H39.604L67.7731 143.265V143.556C67.7731 151.977 95.6518 158.657 129.629 158.657C163.897 158.657 191.775 151.977 191.775 143.556V142.975L220.816 77.6343Z" fill="#F0F0F0"/>
<path d="M130.501 158.366C164.769 158.366 192.066 151.687 192.066 143.556C192.066 143.556 191.776 143.265 191.776 142.975L221.397 77.6343H40.1855" fill="#F0F0F0"/>
<path d="M130.5 99.7047C180.701 99.7047 221.396 89.8234 221.396 77.6341C221.396 65.4448 180.701 55.5635 130.5 55.5635C80.2996 55.5635 39.604 65.4448 39.604 77.6341C39.604 89.8234 80.2996 99.7047 130.5 99.7047Z" fill="#F0F0F0"/>
<path d="M130.5 55.5635C180.74 55.5635 221.396 65.4372 221.396 77.6341C221.396 89.831 180.74 99.7047 130.5 99.7047" fill="#F0F0F0"/>
<path d="M130.5 67.4697C88.9719 67.4697 55.2852 75.601 55.2852 85.4747C55.2852 87.5075 56.4468 89.2499 58.77 90.9924C75.323 96.2196 101.169 99.414 130.5 99.414C159.83 99.414 185.386 96.2196 202.229 90.9924C204.552 89.2499 205.714 87.5075 205.714 85.4747C205.714 75.601 172.027 67.4697 130.5 67.4697Z" fill="#F0F0F0"/>
<path d="M130.5 99.414C159.54 99.414 185.386 96.2196 202.23 90.9924C204.553 89.2499 205.714 87.5075 205.714 85.4747C205.714 75.3106 172.028 67.4697 130.5 67.4697" fill="#F0F0F0"/>
<path d="M160.702 86.0566C171.929 86.0566 181.03 84.2363 181.03 81.9909C181.03 79.7455 171.929 77.9253 160.702 77.9253C149.475 77.9253 140.374 79.7455 140.374 81.9909C140.374 84.2363 149.475 86.0566 160.702 86.0566Z" fill="#F0F0F0"/>
<path d="M117.722 150.235L105.525 129.907L117.722 109.579H141.825L154.022 129.907L141.825 150.235H117.722Z" fill="#F0F0F0"/>
<path d="M118.594 109.579H141.826L154.023 129.907L141.826 150.235" fill="#F0F0F0"/>
<path d="M167.382 80.5393C169.124 74.7313 170.867 68.9232 172.9 62.5343C184.806 26.2339 196.713 12.0042 184.806 8.22891C172.9 4.45367 174.061 22.4587 162.155 58.7591C159.541 66.6 156.927 74.4409 154.314 80.2489H167.382V80.5393Z" fill="#F0F0F0"/>
<path d="M176.254 17.208C174.866 21.3102 175.097 25.0937 176.768 25.6588C178.439 26.2239 180.919 23.3565 182.306 19.2543C183.693 15.1521 183.462 11.3686 181.791 10.8035C180.12 10.2384 177.641 13.1058 176.254 17.208Z" fill="#F0F0F0"/>
<path d="M89.2623 70.3745C76.4846 72.4073 66.6109 75.3114 60.8028 78.7962L55.5756 84.0234C55.2852 84.6043 55.2852 85.1851 55.2852 85.7659C55.2852 87.7987 56.4468 89.5411 58.77 91.2835C72.9998 95.6396 93.9088 98.834 118.012 99.4148L89.2623 70.3745Z" fill="#F0F0F0"/>
<path d="M82.5834 88.6701C72.1289 91.5741 63.1264 93.6069 56.4471 88.0893C44.8309 78.506 52.3814 67.761 46.8638 55.8545" fill="#F0F0F0"/>
<path d="M129.03 71.5912C128.983 70.4695 123.359 69.7933 116.469 70.0809C109.579 70.3685 104.032 71.5109 104.078 72.6326C104.125 73.7543 109.749 74.4304 116.639 74.1429C123.529 73.8553 129.077 72.7129 129.03 71.5912Z" fill="#F0F0F0"/>
<path d="M220.815 77.6343H39.6035L67.7726 143.265V143.556C67.7726 151.977 95.6514 158.657 129.629 158.657C163.896 158.657 191.775 151.977 191.775 143.556V142.975L220.815 77.6343Z" fill="#FCF7C5"/>
<path d="M130.5 158.366C164.768 158.366 192.066 151.687 192.066 143.556C192.066 143.556 191.776 143.265 191.776 142.975L221.397 77.6343H40.1851" fill="#EFE5AB"/>
<path d="M130.5 99.7047C180.7 99.7047 221.396 89.8234 221.396 77.6341C221.396 65.4448 180.7 55.5635 130.5 55.5635C80.2991 55.5635 39.6035 65.4448 39.6035 77.6341C39.6035 89.8234 80.2991 99.7047 130.5 99.7047Z" fill="#E2D998"/>
<path d="M130.5 55.5635C180.739 55.5635 221.396 65.4372 221.396 77.6341C221.396 89.831 180.739 99.7047 130.5 99.7047" fill="#C6B96D"/>
<path d="M130.499 67.4697C88.9714 67.4697 55.2847 75.601 55.2847 85.4747C55.2847 87.5075 56.4463 89.2499 58.7695 90.9924C75.3225 96.2196 101.168 99.414 130.499 99.414C159.83 99.414 185.385 96.2196 202.229 90.9924C204.552 89.2499 205.714 87.5075 205.714 85.4747C205.714 75.601 172.027 67.4697 130.499 67.4697Z" fill="#F47400"/>
<path d="M130.5 99.414C159.54 99.414 185.386 96.2196 202.229 90.9924C204.553 89.2499 205.714 87.5075 205.714 85.4747C205.714 75.3106 172.027 67.4697 130.5 67.4697" fill="#F25600"/>
<path d="M160.702 86.0566C171.929 86.0566 181.03 84.2363 181.03 81.9909C181.03 79.7455 171.929 77.9253 160.702 77.9253C149.475 77.9253 140.374 79.7455 140.374 81.9909C140.374 84.2363 149.475 86.0566 160.702 86.0566Z" fill="#FF8B00"/>
<path d="M117.721 150.235L105.524 129.907L117.721 109.579H141.825L154.022 129.907L141.825 150.235H117.721Z" fill="#FF5F33"/>
<path d="M118.594 109.579H141.826L154.023 129.907L141.826 150.235" fill="#357503"/>
<path d="M167.382 80.5393C169.124 74.7313 170.866 68.9232 172.899 62.5343C184.806 26.2339 196.712 12.0042 184.806 8.22891C172.899 4.45367 174.061 22.4587 162.154 58.7591C159.541 66.6 156.927 74.4409 154.313 80.2489H167.382V80.5393Z" fill="#00233F"/>
<path d="M176.253 17.208C174.866 21.3102 175.097 25.0937 176.768 25.6588C178.439 26.2239 180.918 23.3565 182.305 19.2543C183.692 15.1521 183.462 11.3686 181.791 10.8035C180.12 10.2384 177.64 13.1058 176.253 17.208Z" fill="#262E87"/>
<path d="M89.2619 70.3745C76.4841 72.4073 66.6104 75.3114 60.8023 78.7962L55.5751 84.0234C55.2847 84.6043 55.2847 85.1851 55.2847 85.7659C55.2847 87.7987 56.4463 89.5411 58.7695 91.2835C72.9993 95.6396 93.9083 98.834 118.012 99.4148L89.2619 70.3745Z" fill="#F25600"/>
<path d="M129.029 71.5912C128.983 70.4695 123.359 69.7933 116.469 70.0809C109.579 70.3685 104.031 71.5109 104.078 72.6326C104.125 73.7543 109.748 74.4304 116.638 74.1429C123.529 73.8553 129.076 72.7129 129.029 71.5912Z" fill="#FFA300"/>
<path d="M35.8127 127.895C35.8127 127.895 13.1217 131.322 15.7054 128.906C18.289 126.491 20.7603 125.143 20.7603 125.143C20.7603 125.143 -0.470345 125.2 2.7311 123.121C5.93254 121.099 11.5491 120.201 11.5491 120.201C11.5491 120.201 -4.00879 114.584 0.989958 114.191C6.04487 113.798 15.256 118.74 15.256 118.74C15.256 118.74 9.02165 111.664 12.2231 112.955C15.3684 114.303 22.6699 121.436 22.6699 121.436C22.6699 121.436 20.0863 116.775 23.1192 118.291C26.1522 119.808 35.9812 126.547 35.9812 126.547L35.8127 127.895Z" fill="#5EA27F"/>
<path d="M34.5769 128.569C34.5769 128.569 12.2791 111.663 15.1436 111.383C18.008 111.102 22.6698 113.405 22.6698 113.405C22.6698 113.405 10.7627 102.284 13.2901 102.228C15.8176 102.171 19.693 104.924 19.693 104.924C19.693 104.924 10.3695 89.5341 15.8176 92.3424C21.2656 95.1507 24.8602 109.81 24.8602 109.81C24.8602 109.81 23.7931 98.4645 26.6014 102.396C29.4097 106.328 28.2302 118.347 28.2302 118.347C28.2302 118.347 29.7467 108.743 31.3193 112.787C32.8919 116.887 31.4878 121.155 33.2289 123.795C35.0262 126.435 35.8125 128.008 35.8125 128.008L34.5769 128.569Z" fill="#8AC19A"/>
<path d="M35.3071 125.199C35.3071 125.199 22.4452 135.871 39.7442 147.834C57.0432 159.797 113.883 168.447 115.062 158.955C116.242 149.463 87.4288 146.542 67.0407 131.49C46.6526 116.437 41.373 115.763 35.3071 125.199Z" fill="#E48A67"/>
<path d="M103.436 149.014C100.515 151.766 95.2359 154.237 87.7659 155.023C87.5412 152.215 89.0577 147.946 89.0577 147.946C86.8111 150.923 85.9686 153.507 85.5754 155.192C82.8233 155.36 79.7903 155.304 76.4766 154.911C76.4204 150.811 80.015 144.183 80.015 144.183C76.0273 148.789 75.1286 152.608 74.8478 154.686C71.534 154.237 67.9956 153.507 64.2325 152.44C64.2325 148.283 69.3435 138.286 69.3435 138.286C64.2886 144.408 62.6037 149.407 61.9858 151.766C57.8296 150.474 54.1788 149.07 50.9774 147.553C50.9212 140.757 59.8515 130.816 59.8515 130.816C51.8198 135.758 49.5171 143.229 48.8431 146.542C39.1826 141.824 33.6783 136.826 30.8139 133.512C30.4207 137.5 32.1619 142.498 39.8004 147.778C57.0994 159.741 113.939 168.391 115.119 158.899C115.568 154.967 110.738 152.103 103.436 149.014Z" fill="#DA7252"/>
<path d="M97.3967 69.6584C97.3967 69.6584 95.5477 72.3261 87.2343 63.1493C78.8601 54.0209 85.4627 38.117 85.4627 38.117C85.4627 38.117 96.9865 43.3415 102.302 52.6232C107.447 61.941 97.3967 69.6584 97.3967 69.6584Z" fill="#5EA27F"/>
<path d="M83.3848 72.2841C83.3848 72.2841 72.5562 64.815 63.5544 69.6085C54.5527 74.4021 51.4464 81.8505 51.4464 81.8505C51.4464 81.8505 47.8229 86.0329 65.1432 86.9325C82.4028 87.8806 83.3848 72.2841 83.3848 72.2841Z" fill="#5EA27F"/>
<path d="M75.4063 66.5183C74.7994 66.5053 68.7874 68.8148 60.455 64.2263C52.1711 59.6985 52.9977 42.5359 52.9977 42.5359C52.9977 42.5359 57.9781 40.0548 67.7991 47.6317C77.6809 55.16 75.4063 66.5183 75.4063 66.5183Z" fill="#5EA27F"/>
<path d="M62.4322 81.5388C71.7919 80.9335 80.2504 74.0878 83.447 71.24C70.2486 65.661 61.4114 57.6972 61.4114 57.6972C75.3708 65.8507 87.7222 69.6197 97.6613 71.2367C95.0673 68.7324 90.7548 62.8266 87.4847 49.6273C87.4847 49.6273 95.0102 66.2924 101.302 71.8126C114.239 73.3248 122.011 71.1028 122.011 71.1028L122.055 74.6473C108.599 78.7181 95.5539 76.1983 85.024 71.9706C74.1811 82.3087 62.4322 81.5388 62.4322 81.5388Z" fill="#508C6F"/>
</svg>
