<svg width="144" height="276" viewBox="0 0 144 276" fill="none" xmlns="http://www.w3.org/2000/svg">
<path d="M102.248 176.258C101.948 182.758 103.548 201.158 106.748 208.858C107.148 209.758 107.548 210.558 107.948 211.058C111.948 216.458 118.648 214.258 120.648 213.158C119.848 202.358 116.548 191.458 116.548 191.458V191.158C115.448 191.258 114.648 191.058 114.348 190.658C112.548 188.358 112.548 174.658 105.248 170.658C107.648 176.058 109.348 178.658 109.348 178.658C109.348 178.658 106.348 181.858 104.548 179.458C103.748 178.558 103.048 177.458 102.248 176.258Z" fill="#A52840"/>
<path d="M123.448 163.458C117.048 165.458 109.148 168.958 106.348 170.258C105.748 170.558 105.348 170.758 105.248 170.758C112.548 174.758 112.548 188.458 114.348 190.758C114.648 191.158 115.448 191.258 116.548 191.258C122.248 190.958 136.448 185.458 139.048 182.158C142.248 178.158 135.348 165.858 132.148 162.658C131.548 162.058 130.348 161.958 128.648 162.158C127.248 162.358 125.348 162.858 123.448 163.458Z" fill="#EF7B8E"/>
<path d="M116.648 191.258V191.558C116.648 191.558 119.948 202.358 120.748 213.258C123.148 211.958 140.048 209.158 142.548 203.858C145.548 197.558 139.248 182.158 139.248 182.158C136.448 185.458 122.348 190.958 116.648 191.258Z" fill="#D25763"/>
<path d="M123.848 152.358C122.748 154.058 121.348 155.158 119.748 155.858C119.748 155.858 122.648 161.058 123.348 163.458C125.348 162.858 127.148 162.358 128.648 162.158C127.348 158.258 123.848 152.358 123.848 152.358Z" fill="#D25763"/>
<path d="M94.948 147.358C93.748 146.358 92.548 145.258 91.548 144.158C90.948 143.558 90.348 142.858 89.848 142.258C87.948 139.958 86.348 137.858 85.148 135.958L84.948 136.058C85.648 139.058 86.548 142.358 87.648 145.758C89.848 152.658 93.448 161.058 97.848 168.858C99.248 171.358 100.748 173.758 102.348 176.158C103.148 177.258 103.848 178.358 104.648 179.458C106.348 181.758 109.448 178.658 109.448 178.658C109.448 178.658 107.748 176.058 105.348 170.658C104.748 169.358 104.148 167.958 103.448 166.358C101.648 161.958 99.648 156.258 97.648 149.358C96.648 148.858 95.748 148.158 94.948 147.358Z" fill="#D25763"/>
<path d="M55.6482 94.358C54.4482 95.958 53.9482 103.458 55.8482 105.758C57.9482 108.158 67.7482 100.558 67.7482 100.558L67.8482 99.758C64.7482 99.358 61.7482 98.258 59.6482 95.458L59.7482 92.458C59.1482 92.658 56.2482 93.458 55.6482 94.358Z" fill="white"/>
<path d="M67.748 100.558C69.348 102.158 75.748 108.958 78.548 108.458C80.348 108.158 82.848 98.0582 82.848 98.0582C82.848 97.5582 82.648 97.0582 82.448 96.5582C81.648 95.1582 80.048 94.1582 80.048 94.1582H79.948L79.748 97.9582C79.748 97.9582 73.648 100.358 67.848 99.6582L67.748 100.558Z" fill="white"/>
<path d="M0.547949 47.2578C0.547949 47.2578 0.347949 48.9578 0.147949 51.8578C4.14795 55.0578 14.8479 57.6578 18.1479 53.3578C17.6479 50.4578 17.548 48.8578 17.548 48.8578C17.548 48.8578 13.1479 49.3578 8.64795 48.8578C3.04795 48.1578 0.547949 47.2578 0.547949 47.2578Z" fill="#113522"/>
<path d="M105.448 165.158C104.448 165.858 103.348 166.458 103.348 166.458C104.048 168.058 104.648 169.458 105.248 170.758C105.348 170.758 105.748 170.558 106.348 170.258L105.448 165.158Z" fill="#1B1B51"/>
<path d="M82.7481 125.258C82.2481 124.058 81.9481 123.058 82.2481 122.858C82.3481 122.758 82.5481 122.658 82.6481 122.658C81.3481 105.058 86.8481 97.2578 86.8481 97.2578C82.9481 96.6578 82.9481 96.6578 82.9481 96.6578L82.5481 96.4578C82.8481 96.9578 82.9481 97.4578 82.9481 97.9578C82.9481 97.9578 80.4481 108.158 78.6481 108.358C75.7481 108.858 69.4481 102.058 67.8481 100.458C67.8481 100.458 58.0481 108.058 55.9481 105.658C53.9481 103.358 54.5481 95.8578 55.7481 94.2578C49.3481 94.0578 36.5481 92.4578 29.3481 83.7578C28.1481 82.3578 27.1481 80.7578 26.2481 78.8578C21.1481 67.7578 19.0481 58.4578 18.2481 53.2578C14.7481 53.7578 4.2481 54.9578 0.248102 51.7578C-0.351898 61.3578 -0.651898 84.1578 9.1481 100.858C20.0481 119.458 34.7481 123.058 34.7481 123.058C28.7481 137.658 22.7481 156.058 23.9481 161.958C24.0481 162.558 24.3481 163.258 24.7481 163.858C33.4481 177.858 77.0481 179.758 97.7481 168.958C93.2481 161.058 89.7481 152.758 87.5481 145.858C86.4481 142.458 85.5481 139.158 84.8481 136.158L85.0481 136.058C80.5481 129.258 80.2481 125.758 80.4481 124.858C80.6481 123.758 82.7481 125.258 82.7481 125.258Z" fill="#183D29"/>
<path d="M4.24795 29.3582C6.54795 28.8582 7.24795 36.9582 7.24795 36.9582C7.24795 36.9582 7.94795 28.1582 10.4479 28.1582C12.2479 28.1582 12.8479 38.0582 12.8479 38.0582C12.8479 38.0582 13.7479 27.6582 15.9479 29.4582C17.6479 30.9582 17.2479 37.9582 17.1479 39.9582C17.1479 40.2582 17.1479 40.4582 17.1479 40.4582C17.1479 40.4582 21.1479 36.1582 22.1479 38.1582C23.1479 40.1582 18.548 44.3582 17.948 45.2582C16.948 46.5582 17.6479 48.7582 17.6479 48.7582C17.6479 48.7582 13.2479 49.2582 8.74795 48.7582C3.14795 48.0582 0.647949 47.1582 0.647949 47.1582C0.947949 43.9582 2.04795 29.8582 4.24795 29.3582Z" fill="#F9CCB4"/>
<path d="M24.7481 163.958C24.7481 163.958 18.7481 213.158 21.3481 218.258C22.2481 219.958 24.3481 221.758 27.7481 223.358C33.1481 226.058 41.5481 228.258 52.7481 228.958C55.2481 229.158 57.9481 229.158 60.7481 229.158C63.7481 229.158 66.7481 228.958 69.7481 228.758C79.2481 227.958 88.1481 226.258 94.8481 224.358C101.848 222.358 106.548 220.158 107.148 218.758C107.648 217.458 106.748 208.958 106.748 208.958C103.548 201.258 101.948 182.858 102.248 176.358C100.648 174.058 99.1481 171.558 97.7481 169.058C77.0481 179.858 31.6481 174.658 24.7481 163.958Z" fill="#1B1B51"/>
<path d="M24.748 263.958C24.748 263.958 21.248 267.558 21.548 269.958C21.948 274.058 44.448 275.858 45.048 273.058C45.548 271.058 46.048 268.558 46.548 265.658C44.348 266.258 34.048 265.258 24.748 263.958Z" fill="#000007"/>
<path d="M27.048 233.558L24.748 263.958C33.048 268.658 44.348 266.258 46.648 265.758C48.348 256.858 50.248 245.158 51.448 237.258C49.048 237.258 37.448 236.958 27.048 233.558Z" fill="#2B2B59"/>
<path d="M27.7483 223.358L27.0483 233.658C37.5483 237.058 49.1483 237.258 51.5483 237.258C52.3483 232.258 52.8483 228.958 52.8483 228.958C41.5483 228.258 33.1483 225.958 27.7483 223.358Z" fill="#F9CCB4"/>
<path d="M34.748 48.6581C36.848 41.2581 41.648 41.0581 43.448 38.3581C45.248 35.5581 46.448 31.6581 46.448 31.6581C50.448 32.8581 56.548 33.6581 65.348 33.0581C82.148 31.8581 94.948 24.0581 98.648 21.5581C98.648 21.5581 95.748 27.1581 97.948 30.6581C98.048 30.8581 98.148 30.9581 98.348 31.1581C98.248 31.3581 98.248 31.5581 98.148 31.7581C96.748 37.6581 99.048 44.3581 101.548 47.0581C101.548 47.0581 101.548 55.2581 105.248 59.3581C106.248 60.5581 107.448 60.8581 108.648 60.8581C109.148 60.8581 109.648 60.7581 110.148 60.5581C110.548 60.4581 110.848 60.3581 111.148 60.1581C113.448 59.4581 116.748 59.0581 119.548 61.9581C124.548 67.1581 119.348 82.9581 105.448 77.9581C105.448 77.9581 95.948 88.4581 80.248 89.7581V89.8581L80.048 94.1581L79.748 97.9581C79.748 97.9581 73.648 100.358 67.848 99.6581C64.748 99.2581 61.748 98.1581 59.648 95.3581L59.748 92.3581L60.048 86.1581C48.648 81.4581 41.248 73.4581 37.448 65.5581C34.348 59.3581 33.448 53.0581 34.748 48.6581Z" fill="#F9CCB4"/>
<path opacity="0.12" d="M60.048 86.2578C61.648 86.9578 63.348 87.5578 65.148 88.0578C70.648 89.6578 75.648 90.0578 80.248 89.6578V89.7578V90.5578C73.848 91.9578 66.348 92.1578 59.948 89.9578L60.048 86.2578Z" fill="#50296A"/>
<path d="M69.748 228.658L71.348 238.758H71.448C82.448 239.658 93.348 235.758 95.648 234.858C95.148 228.758 94.848 224.358 94.848 224.358L94.748 224.158C88.148 226.158 79.248 227.958 69.748 228.658Z" fill="#F9CCB4"/>
<path d="M71.3481 238.858L75.8481 267.058C84.9481 269.758 95.4481 264.758 97.5481 263.758C97.1481 254.958 96.3481 243.358 95.7481 235.058C93.4481 235.958 82.4481 239.858 71.5481 238.958L71.3481 238.858Z" fill="#2B2B59"/>
<path d="M75.848 267.058C75.848 267.058 73.348 271.358 74.048 273.658C75.348 277.558 97.748 274.158 97.748 271.258C97.748 269.258 97.648 266.658 97.548 263.758C95.548 264.758 85.048 269.758 75.848 267.058Z" fill="#000007"/>
<path d="M93.1481 124.658C92.7481 124.258 92.3481 123.858 91.8481 123.458C89.8481 121.758 87.3481 119.958 86.2481 120.858C85.4481 121.458 85.7481 122.658 86.4481 123.958C86.2481 123.758 84.2481 121.858 82.7481 122.558C82.6481 122.558 82.4481 122.658 82.3481 122.758C82.0481 123.058 82.2481 123.958 82.8481 125.158C82.8481 125.158 80.7481 123.758 80.5481 124.758C80.3481 125.658 80.5481 129.158 85.1481 135.958C86.3481 137.758 87.9481 139.858 89.8481 142.258C90.3481 142.858 90.9481 143.558 91.5481 144.158C98.3481 138.858 101.848 128.358 101.848 128.358L102.048 128.158C98.3481 125.258 94.7481 122.658 93.3481 121.858V124.458L93.1481 124.658Z" fill="#F9CCB4"/>
<path d="M105.548 130.958C105.548 130.958 103.348 142.258 94.9481 147.458C95.7481 148.158 96.7481 148.858 97.6481 149.558C99.6481 151.058 101.848 152.358 104.048 153.458C109.748 156.358 115.648 157.758 119.848 155.958C121.448 155.258 122.848 154.158 123.948 152.458C130.548 142.058 117.748 123.258 106.448 109.758C102.548 105.158 98.3481 102.158 94.4481 100.158C94.4481 100.158 89.8481 111.058 91.9481 123.558C92.4481 123.958 92.8481 124.358 93.2481 124.758L93.3481 124.658V121.958C94.7481 122.658 98.3481 125.358 102.048 128.258C103.148 129.058 104.348 130.058 105.548 130.958Z" fill="#183D29"/>
<path d="M91.448 144.258C92.448 145.358 93.648 146.458 94.848 147.458C105.048 143.058 105.448 130.958 105.448 130.958C104.348 130.058 103.148 129.158 101.948 128.258L101.748 128.458C101.848 128.358 98.348 138.858 91.448 144.258Z" fill="#113522"/>
<path d="M97.5481 149.458C99.5481 156.358 101.548 162.058 103.348 166.458C103.348 166.458 104.448 165.858 105.448 165.158C106.248 164.658 106.948 163.958 107.048 163.458C107.248 162.258 103.848 153.358 103.848 153.358C101.748 152.258 99.5481 150.958 97.5481 149.458Z" fill="#183D29"/>
<path d="M27.6479 77.2578C28.5479 73.0578 37.4479 65.7578 37.4479 65.7578C41.3479 73.5578 48.7479 81.5578 60.0479 86.3578L59.8479 92.4578C59.1479 92.6578 56.2479 93.4578 55.6479 94.3578C49.2479 94.1578 36.4479 92.5578 29.2479 83.8578C27.6479 81.6578 27.3479 78.5578 27.6479 77.2578Z" fill="#9E6B44"/>
<path d="M46.4478 31.658C41.3478 30.158 39.5479 27.858 39.5479 26.958C39.5479 25.458 45.8479 22.258 45.8479 22.258C45.8479 22.258 52.5479 2.05797 75.3479 0.157967C98.8479 -1.84203 108.648 15.758 108.948 18.558C108.948 18.558 109.148 18.658 109.548 18.858C110.048 18.558 120.548 13.658 126.648 21.758C132.948 30.058 130.448 39.558 133.948 42.558C137.448 45.558 143.548 48.658 141.448 52.058C140.448 53.758 138.648 54.058 136.848 53.658C137.248 55.058 137.148 56.358 136.448 57.258C132.748 61.558 128.248 55.158 128.248 55.158C128.248 55.158 130.248 60.258 124.448 56.358C126.048 64.258 127.548 70.158 127.548 70.158C130.448 80.758 137.448 92.558 134.748 95.658C132.548 98.158 127.248 99.758 124.148 97.258C123.348 99.658 121.348 101.958 116.448 101.858C108.248 101.758 107.248 94.458 107.248 94.458C107.248 94.458 103.248 102.658 97.3479 100.758C91.4478 98.858 91.3479 94.758 91.3479 94.758C91.3479 94.758 90.8479 96.358 89.3479 97.658L89.2479 97.958C88.4479 97.758 87.6479 97.658 86.6479 97.658C82.7479 97.058 82.7479 97.058 82.7479 97.058L82.3479 96.858C81.5479 95.458 79.9478 94.458 79.9478 94.458H79.8479L80.0478 90.158V90.058C95.7478 88.758 105.248 78.258 105.248 78.258C119.048 83.258 124.348 67.458 119.348 62.258C116.548 59.458 113.248 59.758 110.948 60.458C110.548 60.558 110.248 60.758 109.948 60.858C109.448 60.958 108.948 61.058 108.448 61.158C107.348 61.158 106.148 60.858 105.048 59.658C101.448 55.558 101.348 47.358 101.348 47.358C98.8479 44.758 96.5478 37.958 97.9478 32.058C98.0478 31.858 98.0479 31.658 98.1479 31.458C98.0479 31.258 97.8479 31.158 97.7479 30.958C95.4479 27.458 98.4478 21.858 98.4478 21.858C94.8479 24.258 81.9479 32.058 65.1479 33.358C56.5479 33.758 50.4478 32.958 46.4478 31.658Z" fill="#9E6B44"/>
<path d="M86.8481 97.2578C86.8481 97.2578 81.4481 104.958 82.7481 122.458C84.2481 121.758 86.2481 123.658 86.4481 123.858C85.7481 122.558 85.4481 121.358 86.2481 120.758C87.3481 119.958 91.4481 123.058 93.4481 124.758C92.4481 112.658 94.4481 99.8578 94.4481 99.8578C94.4481 99.8578 92.7481 98.1578 89.4481 97.3578C88.6481 97.4578 87.7481 97.3578 86.8481 97.2578Z" fill="#D25763"/>
<path d="M79.8483 98.2579C78.1483 98.9579 76.4483 99.4579 74.6483 99.8579C72.8483 100.258 71.0483 100.358 69.1483 100.358C67.3483 100.258 65.4483 99.9579 63.7483 99.1579C62.0483 98.3579 60.5483 97.1579 59.5483 95.6579C59.4483 95.5579 59.5483 95.3579 59.6483 95.3579C59.7483 95.2579 59.8483 95.3579 59.9483 95.3579C61.0483 96.6579 62.5483 97.7579 64.1483 98.3579C65.7483 98.9579 67.5483 99.3579 69.2483 99.3579C71.0483 99.4579 72.7483 99.2579 74.5483 98.9579C76.3483 98.6579 78.0483 98.2579 79.7483 97.7579C79.8483 97.7579 80.0483 97.7579 80.0483 97.9579C80.0483 98.0579 79.9483 98.1579 79.8483 98.2579Z" fill="#BAA99F"/>
<path d="M125.448 148.058C125.248 149.858 124.648 151.558 123.648 153.058C122.648 154.558 121.148 155.758 119.448 156.358C118.648 156.658 117.748 156.858 116.848 156.958C115.948 157.058 115.048 157.058 114.148 156.958C112.348 156.858 110.548 156.458 108.848 155.858C105.448 154.758 102.248 153.058 99.3482 151.158C96.4482 149.158 93.6482 146.958 91.3482 144.258C91.2482 144.158 91.2482 144.058 91.3482 143.958C91.4482 143.858 91.5482 143.858 91.6482 143.958C92.9482 145.158 94.2482 146.358 95.6482 147.358C97.0482 148.358 98.4482 149.458 99.8482 150.358C102.748 152.258 105.848 153.858 109.148 154.958C112.348 156.058 115.948 156.658 119.148 155.558C122.448 154.558 124.648 151.358 125.348 147.958C125.348 148.058 125.448 148.058 125.448 148.058Z" fill="#062F1C"/>
<path d="M112.648 136.758C111.548 136.158 110.748 135.458 109.848 134.758L107.148 132.658C105.348 131.258 103.548 129.858 101.848 128.358C101.748 128.258 101.748 128.158 101.848 128.058C101.948 127.958 102.048 127.958 102.148 128.058C104.048 129.358 105.848 130.758 107.648 132.158L110.348 134.258C111.248 134.958 112.148 135.758 112.948 136.358H113.048C113.148 136.458 113.148 136.558 113.048 136.658C112.848 136.758 112.748 136.758 112.648 136.758Z" fill="#062F1C"/>
<path d="M86.248 120.958C86.148 121.258 86.148 121.658 86.248 122.058C86.348 122.458 86.448 122.858 86.648 123.158C86.948 123.858 87.348 124.658 87.748 125.358C88.148 126.058 88.548 126.758 88.948 127.458C89.348 128.158 89.848 128.858 90.348 129.458V129.558H90.248C88.948 128.458 87.848 127.158 87.048 125.658C86.648 124.958 86.248 124.158 86.048 123.258C85.948 122.858 85.848 122.458 85.748 121.958C85.748 121.758 85.748 121.558 85.748 121.258C85.748 121.058 85.848 120.758 86.048 120.558H86.148C86.348 120.858 86.348 120.958 86.248 120.958Z" fill="#8E4626"/>
<path d="M82.3482 122.958C82.3482 123.358 82.4482 123.858 82.5482 124.258C82.6482 124.658 82.8482 125.158 82.9482 125.558C83.2482 126.358 83.6482 127.258 84.1482 127.958C84.5482 128.758 85.1482 129.458 85.6482 130.158C86.2482 130.858 86.8482 131.558 87.4482 132.258V132.358H87.3482C85.7482 131.358 84.4482 129.958 83.4482 128.258C82.9482 127.458 82.5482 126.558 82.2482 125.658C81.9482 124.758 81.7482 123.758 81.9482 122.758C81.9482 122.658 82.0482 122.658 82.0482 122.658C82.2482 122.858 82.3482 122.858 82.3482 122.958Z" fill="#8E4626"/>
<path d="M43.2483 105.258C41.9483 107.458 40.8483 109.858 39.7483 112.258C38.6483 114.658 37.6483 117.058 36.6483 119.458C34.6483 124.258 32.7483 129.158 31.0483 134.058C29.2483 138.958 27.6483 143.858 26.1483 148.858C25.4483 151.358 24.8483 153.858 24.3483 156.458C24.2483 157.058 24.1483 157.758 24.0483 158.358C23.9483 158.958 23.9483 159.658 23.9483 160.258C23.8483 160.858 24.0483 161.558 24.0483 162.158C24.1483 162.758 24.4483 163.358 24.7483 163.958V164.058H24.6483C24.2483 163.558 23.9483 162.958 23.7483 162.258C23.6483 161.558 23.5483 160.958 23.5483 160.258C23.5483 159.558 23.5483 158.958 23.6483 158.258C23.6483 157.558 23.7483 156.958 23.8483 156.258C24.2483 153.658 24.8483 151.058 25.4483 148.558C26.7483 143.458 28.4483 138.558 30.1483 133.558C31.9483 128.658 33.8483 123.758 35.9483 118.958C38.0483 114.158 40.2483 109.358 43.0483 104.958C43.0483 104.958 43.1483 104.858 43.1483 104.958C43.2483 105.158 43.2483 105.158 43.2483 105.258Z" fill="#062F1C"/>
<path d="M13.3481 40.1579C12.7481 40.0579 12.2481 39.8579 11.6481 39.7579C11.0481 39.6579 10.5481 39.5579 9.94814 39.5579C8.84815 39.4579 7.74814 39.6579 6.64814 40.0579C6.54814 40.1579 6.34814 40.0579 6.34814 39.9579C6.34814 39.8579 6.34814 39.7579 6.44814 39.6579C7.34814 38.7579 8.74814 38.4579 10.0481 38.5579C10.6481 38.5579 11.3481 38.6579 11.9481 38.8579C12.5481 39.0579 13.1481 39.3579 13.6481 39.6579C13.7481 39.7579 13.8481 39.8579 13.7481 39.9579C13.6481 40.1579 13.5481 40.1579 13.3481 40.1579Z" fill="#8E4626"/>
<path d="M116.448 68.8578C116.248 68.0578 115.848 67.2578 115.248 66.6578C114.648 66.1578 113.848 65.7578 113.048 65.7578C112.248 65.6578 111.448 65.9578 110.748 66.4578C110.048 66.9578 109.348 67.5578 108.748 68.2578C108.648 68.3578 108.548 68.3578 108.448 68.2578C108.348 68.1578 108.348 68.0578 108.348 67.9578C108.848 67.0578 109.448 66.3578 110.248 65.7578C111.048 65.1578 112.048 64.7578 113.148 64.7578C114.248 64.8578 115.148 65.2578 115.948 66.0578C116.648 66.8578 117.048 67.8578 116.948 68.8578C116.948 68.9578 116.848 69.0578 116.648 69.0578C116.548 69.0578 116.448 68.9578 116.448 68.8578Z" fill="#8E4626"/>
<path opacity="0.34" d="M101.339 71.0354C102.545 65.9293 99.3832 60.8125 94.2771 59.6069C89.171 58.4012 84.0543 61.5631 82.8486 66.6692C81.6429 71.7752 84.8048 76.892 89.9109 78.0977C95.017 79.3033 100.134 76.1414 101.339 71.0354Z" fill="#D05184"/>
<path opacity="0.34" d="M56.2895 55.472C57.13 50.293 53.613 45.4132 48.4339 44.5727C43.2549 43.7321 38.3751 47.2492 37.5346 52.4282C36.6941 57.6072 40.2111 62.487 45.3901 63.3276C50.5692 64.1681 55.449 60.651 56.2895 55.472Z" fill="#D05184"/>
<path d="M110.048 18.5581C110.048 18.5581 110.348 18.7581 110.648 18.8581C110.948 18.8581 111.248 18.9581 111.648 18.9581C112.348 18.9581 113.048 18.8581 113.648 18.6581C115.048 18.3581 116.348 17.8581 117.548 17.1581C118.748 16.5581 119.848 15.6581 120.448 14.6581C121.048 13.6581 121.048 12.5581 120.548 11.5581C120.348 11.0581 119.948 10.6581 119.548 10.5581C119.148 10.3581 118.648 10.3581 118.048 10.5581C116.848 10.8581 115.648 11.5581 114.548 12.3581C113.448 13.2581 112.448 14.1581 111.548 15.2581C111.148 15.8581 110.748 16.3581 110.448 16.9581C110.148 17.4581 109.948 18.2581 110.048 18.5581ZM109.148 18.9581C108.948 18.4581 109.048 17.9581 109.048 17.5581C109.148 17.1581 109.248 16.7581 109.448 16.4581C109.748 15.7581 110.148 15.1581 110.548 14.4581C111.348 13.2581 112.348 12.0581 113.448 11.0581C114.548 10.0581 115.748 9.05809 117.348 8.55809C118.148 8.35809 119.148 8.15809 120.048 8.55809C121.048 8.95809 121.748 9.75809 122.048 10.5581C122.448 11.3581 122.648 12.1581 122.648 13.1581C122.648 14.0581 122.248 14.9581 121.748 15.6581C120.748 17.0581 119.348 17.8581 117.948 18.4581C116.548 19.0581 115.148 19.4581 113.648 19.6581C112.948 19.7581 112.148 19.8581 111.348 19.8581C110.948 19.8581 110.548 19.8581 110.148 19.7581C110.048 19.6581 109.548 19.5581 109.148 18.9581Z" fill="#183D29"/>
<path d="M108.948 18.058C108.948 18.058 109.048 18.058 109.148 17.958C109.248 17.858 109.348 17.758 109.448 17.658C109.648 17.358 109.848 17.058 110.048 16.758C110.348 16.158 110.648 15.458 110.948 14.758C111.448 13.358 111.748 11.958 111.948 10.458C112.148 9.05801 112.148 7.55801 111.848 6.25801C111.648 5.65801 111.448 5.05801 111.048 4.65801C110.748 4.25801 110.248 4.05801 109.648 3.95801C109.148 3.85801 108.748 3.95801 108.448 4.25801C108.148 4.55801 107.848 5.15801 107.648 5.75801C107.248 7.05801 107.148 8.55801 107.148 9.95801C107.148 11.458 107.348 12.958 107.648 14.358C107.848 15.058 107.948 15.758 108.248 16.458C108.348 16.758 108.548 17.158 108.648 17.458C108.748 17.558 108.848 17.758 108.948 17.858C108.948 18.058 109.048 17.958 108.948 18.058ZM108.948 18.958C108.548 18.958 108.248 18.658 108.148 18.558C107.948 18.358 107.848 18.158 107.748 18.058C107.548 17.658 107.348 17.358 107.248 16.958C106.948 16.258 106.748 15.458 106.548 14.758C106.148 13.258 105.848 11.758 105.748 10.158C105.648 8.55801 105.548 7.05801 105.948 5.35801C106.148 4.55801 106.448 3.65801 107.148 2.85801C107.448 2.45801 108.048 2.15801 108.548 2.05801C108.848 1.95801 109.048 1.95801 109.348 1.95801C109.648 1.95801 109.848 1.95801 110.148 1.95801C111.048 2.05801 112.048 2.55801 112.648 3.35801C113.348 4.15801 113.648 5.05801 113.748 5.85801C114.048 7.55801 113.848 9.15801 113.548 10.658C113.248 12.158 112.748 13.658 112.148 15.058C111.848 15.758 111.548 16.458 111.148 17.158C110.948 17.458 110.748 17.858 110.448 18.158C110.348 18.358 110.148 18.458 109.948 18.658C109.648 18.758 109.348 18.958 108.948 18.958Z" fill="#183D29"/>
<path d="M60.8479 64.858C62.2479 66.558 64.1479 68.058 66.8479 68.858C70.0479 69.858 73.1479 69.658 75.8479 68.858C75.7479 68.558 74.3479 65.158 70.5479 63.458C65.1479 60.958 61.1479 64.558 60.8479 64.858Z" fill="#E88591"/>
<path d="M59.848 51.8578C57.548 53.3578 57.048 60.0578 60.848 64.8578C61.148 64.5578 65.148 60.9578 70.548 63.3578C74.348 65.0578 75.748 68.5578 75.848 68.7578C80.948 67.0578 84.248 62.7578 82.648 59.2578C80.748 55.0578 74.948 58.5578 70.648 57.0578C65.448 55.3578 63.648 49.3578 59.848 51.8578Z" fill="black"/>
<path opacity="0.24" d="M73.9481 45.158C76.6481 46.158 77.3481 48.558 76.6481 50.258C75.9481 51.958 73.4481 52.958 71.3481 52.158C69.2481 51.358 67.9481 49.558 68.5481 47.458C68.9481 45.858 71.0481 44.058 73.9481 45.158Z" fill="#B21F38"/>
<path d="M73.8481 52.3581C73.2481 51.7581 75.8481 50.0581 76.1481 50.5581C76.5481 51.2581 74.4481 53.0581 73.8481 52.3581Z" fill="#330C0A"/>
<path d="M70.348 51.2579C69.948 50.8579 69.648 50.3579 69.448 49.8579C69.248 49.3579 69.148 48.8579 69.148 48.3579C69.148 48.0579 69.248 47.7579 69.248 47.5579C69.248 47.3579 69.448 47.0579 69.548 46.8579C69.848 46.3579 70.248 45.8579 70.648 45.4579C70.748 45.3579 70.748 45.0579 70.648 44.9579C70.548 44.8579 70.448 44.8579 70.248 44.8579C69.548 45.1579 68.948 45.5579 68.548 46.0579C68.348 46.3579 68.048 46.6579 67.948 47.0579C67.848 47.4579 67.748 47.7579 67.748 48.1579C67.748 48.9579 67.948 49.7579 68.348 50.3579C68.748 50.9579 69.348 51.4579 70.048 51.7579C70.248 51.8579 70.448 51.7579 70.448 51.5579C70.548 51.5579 70.548 51.3579 70.348 51.2579Z" fill="#783021"/>
<path d="M84.948 49.358C85.248 47.758 86.848 46.758 88.348 47.158C89.848 47.458 90.848 49.058 90.548 50.558C90.248 52.158 88.648 53.158 87.148 52.758C85.648 52.358 84.648 50.958 84.948 49.358Z" fill="black"/>
<path d="M92.448 48.2582C91.848 48.3582 91.348 48.6582 90.848 48.7582C90.648 48.8582 90.348 48.8582 90.148 48.8582C89.948 48.8582 89.748 48.8582 89.448 48.7582H89.348C89.148 48.7582 89.048 48.8582 88.948 49.0582C88.948 49.1582 88.948 49.2582 88.948 49.2582C89.148 49.5582 89.448 49.8582 89.848 49.9582C90.248 50.0582 90.648 50.0582 91.048 49.9582C91.448 49.8582 91.748 49.6582 92.048 49.4582C92.348 49.2582 92.548 48.9582 92.748 48.6582C92.848 48.4582 92.748 48.2582 92.648 48.1582C92.648 48.1582 92.548 48.1582 92.448 48.2582Z" fill="black"/>
<path d="M62.0479 42.3577C63.2479 41.2577 63.3479 39.4577 62.3479 38.2577C61.3479 37.0577 59.4479 36.9577 58.2479 38.0577C57.0479 39.1577 56.9479 40.9577 57.9479 42.1577C58.9479 43.3577 60.7479 43.4577 62.0479 42.3577Z" fill="black"/>
<path d="M59.448 35.2578C59.648 35.8578 59.648 36.4578 59.848 36.8578C59.948 37.0578 59.948 37.2578 60.048 37.4578C60.148 37.6578 60.248 37.8578 60.448 38.0578C60.548 38.1578 60.548 38.3578 60.448 38.5578C60.348 38.6578 60.348 38.6578 60.248 38.6578C59.848 38.6578 59.448 38.4578 59.148 38.1578C58.848 37.8578 58.648 37.4578 58.548 37.1578C58.448 36.7578 58.448 36.4578 58.448 36.0578C58.448 35.6578 58.648 35.3578 58.848 35.0578C58.948 34.8578 59.148 34.8578 59.348 34.9578C59.348 35.1578 59.348 35.1578 59.448 35.2578Z" fill="black"/>
<path d="M86.548 36.4578C88.748 33.8578 95.348 38.6578 94.448 41.5578C93.648 43.9578 92.348 41.5578 89.348 40.0578C87.548 39.1578 85.348 37.8578 86.548 36.4578Z" fill="#91633E"/>
<path d="M134.148 181.858C134.648 181.758 135.248 182.058 135.448 182.458C135.548 182.658 135.648 182.758 135.748 182.958C135.948 183.258 136.048 183.558 136.248 183.858C136.548 184.558 136.748 185.258 136.948 186.058C137.048 186.258 137.048 186.458 137.048 186.658C137.048 187.158 136.848 187.758 136.448 188.058C135.948 188.458 135.348 188.458 134.848 188.158C134.348 187.858 134.048 187.358 133.948 186.858C133.848 186.258 133.748 185.558 133.548 184.958C133.448 184.658 133.348 184.258 133.348 183.958C133.348 183.758 133.248 183.558 133.248 183.458C133.048 182.658 133.448 182.058 134.148 181.858Z" fill="#F7D733"/>
<path d="M122.448 185.558C122.948 185.458 123.548 185.758 123.748 186.158C123.848 186.358 123.948 186.458 124.048 186.658C124.248 186.958 124.348 187.258 124.548 187.558C124.848 188.258 125.048 188.958 125.248 189.758C125.348 189.958 125.348 190.158 125.348 190.358C125.348 190.858 125.148 191.458 124.748 191.758C124.248 192.158 123.648 192.158 123.148 191.858C122.648 191.558 122.348 191.058 122.248 190.558C122.148 189.958 122.048 189.258 121.848 188.658C121.748 188.358 121.648 187.958 121.648 187.658C121.648 187.458 121.548 187.258 121.548 187.158C121.348 186.358 121.748 185.758 122.448 185.558Z" fill="#F7D733"/>
<path d="M92.948 176.858C93.148 178.758 93.348 180.658 93.548 182.558C93.648 184.458 93.848 186.358 93.948 188.258C94.148 192.058 94.248 195.858 94.248 199.658C94.148 203.458 94.148 207.258 93.948 211.058C93.748 214.858 93.448 218.658 92.948 222.458C92.948 222.758 92.648 222.858 92.448 222.858C92.248 222.858 92.048 222.658 92.048 222.358L92.248 210.958C92.248 207.158 92.348 203.358 92.348 199.558C92.348 195.758 92.348 191.958 92.248 188.158L91.948 176.958C91.948 176.658 92.148 176.458 92.448 176.458C92.648 176.458 92.848 176.658 92.948 176.858Z" fill="#120839"/>
<path d="M78.4481 177.958C78.5481 179.958 78.6481 181.858 78.7481 183.858L78.9481 189.758C79.0481 193.658 79.0481 197.658 79.0481 201.558C79.0481 205.458 79.0481 209.458 78.9481 213.358C78.8481 217.258 78.7481 221.258 78.5481 225.158C78.5481 225.458 78.3481 225.658 78.0481 225.658C77.8481 225.658 77.6481 225.458 77.5481 225.258C77.3481 221.358 77.2481 217.358 77.1481 213.458C77.0481 209.558 77.0481 205.558 77.0481 201.658C77.0481 197.758 77.0481 193.758 77.1481 189.858L77.2481 183.958C77.3481 181.958 77.3481 180.058 77.4481 178.058C77.4481 177.758 77.6481 177.558 77.9481 177.658C78.2481 177.458 78.4481 177.658 78.4481 177.958Z" fill="#120839"/>
<path d="M63.5481 177.658C63.6481 179.658 63.6481 181.658 63.6481 183.658V189.658C63.6481 193.658 63.5481 197.758 63.4481 201.758C63.3481 205.758 63.2481 209.858 63.0481 213.858C62.8481 217.858 62.6481 221.958 62.3481 225.958C62.3481 226.258 62.0481 226.458 61.8481 226.358C61.6481 226.358 61.4481 226.158 61.4481 225.858C61.3481 221.858 61.3481 217.758 61.3481 213.758C61.3481 209.758 61.4481 205.658 61.5481 201.658C61.6481 197.658 61.7481 193.558 61.9481 189.558L62.2481 183.558C62.3481 181.558 62.4481 179.558 62.6481 177.558C62.6481 177.258 62.9481 177.058 63.1481 177.158C63.3481 177.258 63.4481 177.458 63.5481 177.658Z" fill="#120839"/>
<path d="M49.5483 177.258L49.1483 183.158C49.0483 185.158 48.8483 187.058 48.7483 189.058C48.5483 192.958 48.2483 196.958 48.1483 200.858C47.9483 204.758 47.8483 208.758 47.8483 212.658C47.7483 216.558 47.7483 220.558 47.6483 224.458C47.6483 224.758 47.4483 224.958 47.1483 224.958C46.9483 224.958 46.7483 224.758 46.6483 224.558C46.2483 220.658 46.0483 216.658 46.0483 212.658C45.9483 208.658 46.0483 204.758 46.1483 200.758C46.3483 196.758 46.5483 192.858 46.9483 188.858C47.1483 186.858 47.3483 184.958 47.6483 182.958C47.9483 180.958 48.1483 179.058 48.5483 177.058C48.5483 176.758 48.8483 176.658 49.1483 176.658C49.3483 176.758 49.5483 176.958 49.5483 177.258Z" fill="#120839"/>
<path d="M36.3481 174.158L31.7481 221.758C31.7481 222.058 31.4481 222.258 31.2481 222.158C31.0481 222.158 30.8481 221.958 30.8481 221.658C30.8481 217.658 30.9481 213.658 31.2481 209.658C31.4481 205.658 31.8481 201.658 32.1481 197.758C32.5481 193.758 33.0481 189.858 33.5481 185.858L34.4481 179.958C34.7481 177.958 35.1481 176.058 35.5481 174.058C35.6481 173.758 35.8481 173.658 36.1481 173.658C36.2481 173.758 36.3481 173.958 36.3481 174.158Z" fill="#120839"/>
<path d="M108.248 18.6579C111.548 19.7579 114.448 21.8579 116.748 24.4579C119.048 27.0579 120.748 30.2579 121.648 33.5579C123.548 40.2579 123.448 47.2579 124.248 54.0579C125.048 60.8579 126.548 67.5579 128.748 74.0579C129.848 77.2579 131.048 80.4579 132.448 83.6579C133.148 85.2579 133.848 86.7579 134.648 88.2579C135.048 89.0579 135.448 89.7579 135.748 90.6579C136.048 91.4579 136.248 92.4579 135.948 93.4579C135.648 94.4579 134.948 95.1579 134.348 95.7579C133.648 96.3579 132.948 96.8579 132.148 97.3579C130.648 98.2579 128.848 98.8579 126.948 98.7579C126.048 98.6579 125.048 98.4579 124.248 97.9579C123.448 97.4579 122.748 96.8579 122.248 96.0579C121.748 95.2579 121.348 94.3579 121.348 93.4579C121.348 92.9579 121.348 92.4579 121.548 92.0579C121.648 91.8579 121.748 91.5579 121.848 91.3579C121.948 91.1579 122.148 90.8579 122.548 90.6579C122.948 90.5579 123.348 90.6579 123.548 90.8579C123.748 91.0579 123.948 91.2579 124.148 91.4579C124.448 91.9579 124.548 92.3579 124.648 92.8579C124.848 93.7579 124.848 94.6579 124.648 95.5579C124.548 96.4579 124.248 97.3579 123.848 98.1579C123.348 98.9579 122.748 99.6579 121.948 100.158C118.948 102.258 114.848 102.358 111.748 100.558C110.148 99.6579 108.948 98.3579 107.848 96.9579C106.848 95.5579 105.948 93.9579 105.748 92.0579C105.748 91.6579 105.648 91.0579 105.948 90.5579C106.248 90.0579 106.848 89.6579 107.548 89.8579C107.848 90.0579 108.048 90.3579 108.148 90.5579C108.248 90.8579 108.248 91.0579 108.248 91.2579C108.248 91.7579 108.248 92.1579 108.148 92.6579C107.748 94.5579 106.548 95.9579 105.448 97.2579C104.248 98.5579 102.848 99.6579 101.148 100.358C100.348 100.658 99.4481 100.858 98.5481 100.858C97.6481 100.858 96.7481 100.458 95.9481 100.158C94.3481 99.4579 92.9481 98.2579 91.9481 96.7579C91.4481 96.0579 91.1481 95.1579 90.8481 94.3579C90.6481 93.4579 90.5481 92.6579 90.5481 91.7579C90.5481 91.6579 90.6481 91.5579 90.7481 91.5579C90.8481 91.5579 90.9481 91.6579 90.9481 91.7579C90.9481 92.5579 91.0481 93.4579 91.2481 94.2579C91.4481 95.0579 91.8481 95.8579 92.2481 96.5579C93.1481 97.9579 94.5481 99.0579 96.0481 99.7579C96.8481 100.058 97.6481 100.358 98.4481 100.358C99.2481 100.358 100.048 100.158 100.848 99.8579C102.348 99.2579 103.748 98.1579 104.848 96.8579C105.948 95.5579 107.048 94.2579 107.348 92.6579C107.448 92.2579 107.448 91.8579 107.348 91.4579C107.348 91.0579 107.248 90.6579 107.048 90.6579C106.948 90.5579 106.548 90.7579 106.448 90.9579C106.348 91.2579 106.348 91.5579 106.348 92.0579C106.548 93.6579 107.348 95.1579 108.348 96.5579C109.348 97.8579 110.548 99.1579 111.948 99.9579C114.848 101.558 118.648 101.458 121.248 99.5579C121.848 99.0579 122.448 98.4579 122.848 97.8579C123.248 97.1579 123.448 96.3579 123.548 95.5579C123.648 94.7579 123.648 93.9579 123.548 93.1579C123.448 92.7579 123.348 92.3579 123.148 92.1579C122.948 91.8579 122.648 91.6579 122.648 91.7579C122.648 91.7579 122.548 91.8579 122.448 91.9579C122.348 92.1579 122.348 92.2579 122.248 92.4579C122.148 92.8579 122.048 93.1579 122.148 93.5579C122.148 94.3579 122.448 95.0579 122.948 95.7579C123.848 97.0579 125.348 97.9579 126.948 97.9579C128.548 98.0579 130.148 97.4579 131.548 96.6579C132.248 96.2579 132.948 95.7579 133.548 95.1579C134.148 94.6579 134.648 94.0579 134.848 93.3579C135.048 92.6579 134.948 91.8579 134.648 91.1579C134.348 90.3579 133.948 89.6579 133.548 88.8579C132.748 87.3579 132.048 85.7579 131.348 84.1579C129.948 80.9579 128.648 77.7579 127.648 74.4579C125.448 67.8579 123.948 61.1579 123.148 54.2579C122.348 47.3579 122.448 40.4579 120.648 33.8579C119.748 30.5579 118.148 27.5579 115.948 24.9579C113.748 22.3579 110.948 20.2579 107.748 19.1579C107.648 19.1579 107.548 18.9579 107.548 18.8579C108.048 18.6579 108.148 18.5579 108.248 18.6579Z" fill="#935C37"/>
<path d="M132.948 40.9578C133.848 42.6578 135.748 43.3578 137.248 44.6578C137.948 45.2578 138.748 45.8578 139.448 46.5578C140.148 47.2578 140.848 47.8578 141.548 48.5578C142.848 50.2578 142.048 53.0578 140.048 53.8578C139.148 54.2578 138.048 54.4578 137.048 54.1578C136.048 53.9578 135.148 53.3578 134.448 52.5578C134.148 52.1578 133.848 51.7578 133.548 51.3578C133.448 51.2578 133.448 51.1578 133.348 50.9578C133.248 50.7578 133.448 50.3578 133.648 50.2578C134.148 50.0578 134.348 50.2578 134.648 50.2578C135.648 50.5578 136.548 51.4578 136.948 52.3578C137.348 53.2578 137.548 54.2578 137.548 55.3578C137.548 56.3578 136.948 57.4578 136.048 58.0578C135.148 58.6578 134.048 58.8578 133.048 58.6578C132.048 58.4578 131.148 58.0578 130.248 57.5578C129.848 57.2578 129.448 56.9578 129.048 56.6578C128.748 56.2578 128.448 55.8578 128.148 55.4578C127.648 54.5578 127.348 53.5578 127.448 52.5578V52.4578C127.548 52.2578 127.948 52.2578 128.048 52.3578C128.148 52.4578 128.248 52.5578 128.348 52.6578C128.548 52.8578 128.548 53.1578 128.648 53.3578C128.748 53.7578 128.848 54.1578 128.848 54.6578C128.948 55.4578 128.948 56.3578 128.648 57.2578C128.448 57.6578 128.048 58.0578 127.548 58.0578C127.048 58.0578 126.648 57.8578 126.248 57.6578C125.448 57.2578 124.748 56.7578 124.348 55.9578V55.8578H124.448C124.848 56.5578 125.548 57.0578 126.248 57.3578C126.648 57.5578 127.048 57.6578 127.348 57.6578C127.748 57.6578 127.948 57.3578 128.148 56.9578C128.448 56.2578 128.348 55.3578 128.248 54.5578C128.148 54.1578 128.148 53.7578 128.048 53.3578C127.948 53.1578 127.948 52.9578 127.848 52.8578C127.848 52.7578 127.748 52.7578 127.648 52.7578C127.548 52.7578 127.648 52.7578 127.648 52.7578V52.6578C127.648 53.5578 127.948 54.4578 128.348 55.2578C128.548 55.6578 128.848 56.0578 129.148 56.3578C129.448 56.6578 129.848 56.9578 130.248 57.1578C131.048 57.6578 131.948 57.9578 132.848 58.0578C133.748 58.1578 134.648 58.0578 135.348 57.5578C136.048 57.0578 136.448 56.2578 136.548 55.4578C136.548 54.5578 136.348 53.6578 136.048 52.8578C135.648 52.0578 135.048 51.3578 134.248 51.1578C134.048 51.0578 133.848 51.0578 133.848 51.0578L133.948 50.9578C133.948 50.9578 133.948 51.0578 134.048 51.1578C134.248 51.5578 134.548 51.9578 134.848 52.2578C135.448 52.9578 136.248 53.4578 137.048 53.6578C137.848 53.8578 138.848 53.7578 139.648 53.3578C140.448 52.9578 141.048 52.2578 141.348 51.4578C141.648 50.6578 141.548 49.6578 141.048 48.9578C139.848 47.5578 138.348 46.3578 136.948 45.0578C136.248 44.4578 135.448 43.8578 134.648 43.2578C133.848 42.6578 133.148 41.9578 132.748 41.0578V40.9578C132.948 40.8578 132.948 40.8578 132.948 40.9578Z" fill="#935C37"/>
<path d="M100.948 20.0581C99.848 21.1581 98.848 22.3581 98.348 23.7581C97.748 25.1581 97.648 26.6581 97.748 28.1581C98.048 31.1581 99.648 33.9581 101.848 35.9581C104.048 38.0581 106.748 39.6581 109.548 40.8581C112.348 42.0581 115.348 42.9581 118.348 43.3581C118.448 43.3581 118.548 43.4581 118.548 43.5581C118.548 43.6581 118.448 43.7581 118.348 43.7581C115.248 43.4581 112.148 42.7581 109.248 41.4581C106.348 40.2581 103.648 38.6581 101.348 36.4581C99.048 34.2581 97.348 31.3581 97.048 28.1581C96.948 26.5581 97.148 24.9581 97.748 23.4581C98.348 21.9581 99.548 20.8581 100.648 19.7581C100.748 19.6581 100.848 19.6581 100.948 19.7581C101.048 19.8581 101.048 19.9581 100.948 20.0581Z" fill="#935C37"/>
<path d="M118.848 51.458C116.048 52.158 113.148 52.158 110.348 51.558C108.948 51.258 107.548 50.758 106.248 50.158C104.948 49.558 103.648 48.858 102.548 47.858C100.348 45.958 98.748 43.358 97.948 40.658C97.148 37.958 96.948 34.958 97.848 32.158C97.848 32.058 98.048 31.958 98.148 31.958C98.248 31.958 98.348 32.158 98.348 32.258C97.948 33.558 97.948 34.958 98.048 36.358C98.148 37.758 98.448 39.058 98.848 40.358C99.748 42.958 101.148 45.358 103.248 47.058C105.348 48.758 107.848 49.958 110.548 50.558C113.148 51.258 115.948 51.358 118.748 50.858C118.848 50.858 119.048 50.958 119.048 51.058C119.048 51.258 119.048 51.358 118.848 51.458Z" fill="#935C37"/>
<path d="M94.248 15.658C91.048 18.458 87.548 20.958 83.848 22.958C80.148 25.058 76.148 26.658 72.048 27.858C67.948 29.058 63.748 29.858 59.448 30.158L57.848 30.358H56.248C55.148 30.358 54.148 30.358 53.048 30.258C50.948 30.058 48.748 29.658 46.848 28.558C46.748 28.458 46.648 28.358 46.748 28.258C46.848 28.158 46.948 28.058 47.048 28.158C48.848 29.158 50.948 29.458 53.048 29.558C54.048 29.558 55.148 29.558 56.248 29.558L57.848 29.458L59.448 29.358C63.648 28.958 67.848 28.258 71.848 26.958C75.848 25.758 79.848 24.158 83.548 22.158C87.248 20.158 90.748 17.858 94.048 15.158C94.148 15.058 94.348 15.058 94.348 15.158C94.348 15.358 94.348 15.558 94.248 15.658Z" fill="#935C37"/>
<path d="M86.0482 11.2582C83.7482 13.3582 81.3482 15.1582 78.7482 16.7582C76.1482 18.3582 73.3482 19.6582 70.5482 20.7582C67.6482 21.8582 64.7482 22.6582 61.7482 23.2582C58.7482 23.8582 55.6482 24.0582 52.6482 24.0582C52.5482 24.0582 52.4482 23.9582 52.4482 23.8582C52.4482 23.7582 52.5482 23.6582 52.6482 23.6582C55.6482 23.4582 58.6482 23.0582 61.6482 22.4582C64.5482 21.8582 67.4482 20.9582 70.2482 19.8582C73.0482 18.7582 75.7482 17.4582 78.3482 15.9582C80.9482 14.4582 83.4482 12.7582 85.8482 10.8582C85.9482 10.7582 86.1482 10.7582 86.1482 10.8582C86.1482 10.9582 86.1482 11.1582 86.0482 11.2582Z" fill="#935C37"/>
<path d="M74.248 11.7577C73.248 12.4577 72.148 13.1577 71.048 13.6577C69.948 14.2577 68.748 14.7577 67.548 15.1577C65.148 16.0577 62.748 16.6577 60.248 17.0577C60.148 17.0577 59.948 16.9577 59.948 16.8577C59.948 16.7577 60.048 16.6577 60.148 16.5577C62.548 15.8577 64.848 15.1577 67.248 14.2577C68.448 13.8577 69.548 13.3577 70.648 12.8577C71.748 12.3577 72.948 11.8577 74.048 11.2577C74.148 11.1577 74.348 11.2577 74.348 11.3577C74.448 11.5577 74.348 11.6577 74.248 11.7577Z" fill="#935C37"/>
<path d="M51.3481 83.2578C50.8481 83.7578 50.4481 84.3578 49.9481 84.8578C49.5481 85.4578 49.1481 85.9578 48.7481 86.5578C47.9481 87.7578 47.4481 89.0578 46.8481 90.3578C46.8481 90.4578 46.6481 90.5578 46.5481 90.4578C46.4481 90.4578 46.3481 90.3578 46.3481 90.2578C46.4481 88.7578 47.0481 87.2578 47.8481 86.0578C48.2481 85.4578 48.7481 84.7578 49.2481 84.2578C49.7481 83.7578 50.3481 83.2578 50.9481 82.8578C51.0481 82.7578 51.2481 82.8578 51.2481 82.9578C51.4481 83.0578 51.3481 83.1578 51.3481 83.2578Z" fill="#935C37"/>
<path d="M45.0479 78.5582C44.4479 79.1582 43.9479 79.7582 43.4479 80.3582C42.9479 80.9582 42.4479 81.5582 41.9479 82.2582C41.0479 83.5582 40.2479 84.9582 39.5479 86.4582C39.4479 86.5582 39.3479 86.6582 39.2479 86.5582C39.1479 86.5582 39.0479 86.3582 39.1479 86.2582C39.4479 84.6582 40.2479 83.0582 41.1479 81.6582C41.6479 80.9582 42.1479 80.3582 42.7479 79.7582C43.3479 79.1582 44.0479 78.6582 44.7479 78.2582C44.8479 78.1582 45.0479 78.2582 45.0479 78.3582C45.1479 78.3582 45.1479 78.4582 45.0479 78.5582Z" fill="#935C37"/>
<path d="M39.8483 72.958C39.1483 73.758 38.3483 74.558 37.6483 75.258C36.9483 76.058 36.1483 76.758 35.4483 77.558C34.0483 79.158 32.8483 80.858 31.9483 82.758C31.8483 82.958 31.7483 82.958 31.6483 82.958C31.5483 82.858 31.4483 82.758 31.5483 82.658C32.1483 80.558 33.3483 78.658 34.7483 76.958C35.4483 76.158 36.2483 75.358 37.0483 74.658C37.8483 73.958 38.6483 73.258 39.5483 72.658C39.6483 72.558 39.8483 72.558 39.8483 72.758C39.9483 72.758 39.9483 72.858 39.8483 72.958Z" fill="#935C37"/>
<path d="M124.248 74.9582C124.148 76.4582 124.548 77.9582 125.148 79.2582C125.748 80.6582 126.548 81.9582 127.348 83.3582C128.048 84.7582 128.848 86.0582 129.448 87.5582C129.748 88.3582 129.948 89.1582 129.848 89.9582C129.848 90.7582 129.648 91.6582 129.148 92.3582C129.048 92.4582 128.948 92.4582 128.848 92.4582C128.748 92.3582 128.748 92.2582 128.748 92.1582C129.448 90.8582 129.148 89.2582 128.648 87.9582C128.048 86.5582 127.248 85.2582 126.448 83.8582C125.748 82.4582 124.948 81.1582 124.348 79.6582C123.748 78.1582 123.448 76.4582 123.848 74.8582C123.848 74.7582 124.048 74.6582 124.148 74.6582C124.148 74.7582 124.248 74.8582 124.248 74.9582Z" fill="#935C37"/>
<path d="M91.4482 238.458C91.4482 238.358 91.4482 238.158 91.5482 238.058C91.5482 237.858 91.6482 237.658 91.8482 237.458C92.0482 237.258 92.2482 237.058 92.4482 237.058C92.7482 237.058 92.9482 237.058 93.1482 237.258L93.2482 237.358C93.4482 237.558 93.4482 237.658 93.5482 237.958C93.5482 238.058 93.6482 238.258 93.6482 238.358C93.6482 238.558 93.7482 238.658 93.7482 238.858C93.8482 239.058 93.8482 239.358 93.8482 239.558C93.8482 239.658 93.8482 239.858 93.8482 239.958C93.8482 240.258 93.8482 240.458 93.7482 240.758C93.6482 241.058 93.5482 241.358 93.3482 241.558C93.1482 241.758 92.9482 241.858 92.6482 241.958C92.3482 241.958 91.9482 241.858 91.7482 241.658C91.5482 241.458 91.5482 241.358 91.4482 241.158C91.3482 241.058 91.2482 240.858 91.2482 240.658C91.2482 240.458 91.2482 240.258 91.1482 240.158V239.758C91.2482 239.258 91.3482 238.858 91.4482 238.458Z" fill="#1B1A42"/>
<path d="M87.6482 240.258C87.6482 240.058 87.6482 239.858 87.7482 239.658C87.8482 239.358 87.9482 239.158 88.0482 238.858C88.1482 238.658 88.3482 238.658 88.5482 238.658C88.7482 238.658 88.8482 238.858 88.9482 238.958C89.0482 239.158 89.1482 239.458 89.2482 239.658C89.3482 239.858 89.3482 240.158 89.3482 240.358C89.4482 240.558 89.4482 240.858 89.4482 241.058C89.4482 241.158 89.5482 241.358 89.5482 241.458C89.6482 241.758 89.5482 242.058 89.3482 242.358C89.1482 242.858 88.3482 242.858 88.0482 242.558C87.9482 242.458 87.8482 242.358 87.8482 242.258C87.7482 242.058 87.7482 241.958 87.6482 241.758C87.6482 241.658 87.6482 241.458 87.6482 241.358C87.6482 241.058 87.6482 240.858 87.6482 240.558C87.5482 240.558 87.6482 240.358 87.6482 240.258Z" fill="#1B1A42"/>
<path d="M83.5481 242.658C83.5481 242.558 83.5481 242.358 83.6481 242.258V242.158C83.7481 241.558 83.7481 240.958 83.7481 240.358C83.7481 240.058 84.0481 239.758 84.3481 239.658C84.7481 239.658 85.0481 239.858 85.1481 240.158C85.3481 240.758 85.4481 241.358 85.5481 241.958C85.5481 242.158 85.6481 242.358 85.6481 242.558C85.6481 242.758 85.6481 243.058 85.5481 243.258C85.3481 243.858 84.6481 244.158 84.1481 243.858C83.8481 243.758 83.7481 243.458 83.6481 243.158C83.6481 243.058 83.6481 242.958 83.6481 242.858C83.5481 242.758 83.5481 242.758 83.5481 242.658Z" fill="#1B1A42"/>
<path d="M79.6481 242.758C79.6481 242.458 79.6481 242.258 79.7481 241.958C79.7481 241.458 79.7481 240.858 79.7481 240.358C79.7481 239.958 80.0481 239.658 80.4481 239.558C80.8481 239.458 81.2481 239.758 81.3481 240.158C81.4481 240.758 81.6481 241.358 81.6481 242.058C81.6481 242.358 81.7481 242.558 81.7481 242.858C81.7481 242.958 81.7481 243.158 81.7481 243.258C81.7481 243.358 81.7481 243.558 81.6481 243.658C81.5481 243.858 81.4481 244.058 81.3481 244.158C81.1481 244.358 80.8481 244.458 80.5481 244.458C80.2481 244.458 80.0481 244.258 79.8481 243.958C79.5481 243.558 79.6481 243.158 79.6481 242.758Z" fill="#1B1A42"/>
<path d="M76.2481 242.458C76.2481 242.258 76.2481 242.058 76.2481 241.858C76.2481 241.458 76.2481 241.058 76.2481 240.658C76.2481 240.258 76.5481 239.858 77.0481 239.758C77.4481 239.658 77.9481 239.958 78.0481 240.358C78.1481 240.758 78.2481 241.158 78.3481 241.558C78.3481 241.758 78.4481 241.958 78.4481 242.158C78.4481 242.258 78.4481 242.358 78.5481 242.458C78.6481 242.758 78.6481 242.958 78.5481 243.358C78.5481 243.458 78.4481 243.558 78.4481 243.658C78.3481 243.758 78.2481 243.858 78.1481 243.958C77.9481 244.058 77.7481 244.258 77.4481 244.158C77.2481 244.158 77.0481 244.058 76.8481 243.958C76.5481 243.858 76.4481 243.558 76.3481 243.258C76.1481 243.058 76.2481 242.758 76.2481 242.458Z" fill="#1B1A42"/>
<path d="M45.1482 242.858C45.1482 242.758 45.2482 242.658 45.2482 242.658C45.3482 242.458 45.3482 242.358 45.4482 242.158C45.6482 241.658 45.8482 241.058 45.8482 240.558V240.458C45.8482 240.158 45.9482 239.958 46.1482 239.758C46.3482 239.558 46.6482 239.458 46.8482 239.458C47.3482 239.458 47.8482 239.958 47.8482 240.458C47.8482 241.058 47.7482 241.758 47.5482 242.358C47.4482 242.658 47.3482 242.858 47.2482 243.158C47.0482 243.558 46.9482 243.958 46.5482 244.258C46.3482 244.358 46.2482 244.458 45.9482 244.558C45.7482 244.558 45.5482 244.558 45.3482 244.458C45.2482 244.358 45.0482 244.258 45.0482 244.158C44.9482 243.958 44.9482 243.658 44.9482 243.458C45.1482 243.058 45.1482 242.958 45.1482 242.858Z" fill="#1B1A42"/>
<path d="M41.5481 241.258C41.6481 241.058 41.7481 240.858 41.7481 240.658C41.8481 240.258 41.9481 239.758 42.0481 239.358C42.0481 239.058 42.3481 238.758 42.5481 238.658C42.7481 238.558 43.0481 238.458 43.2481 238.558C43.4481 238.558 43.7481 238.658 43.9481 238.858C44.1481 239.058 44.3481 239.358 44.2481 239.658C44.1481 240.158 44.0481 240.758 43.9481 241.258C43.8481 241.458 43.8481 241.658 43.7481 241.858V241.958C43.6481 242.258 43.5481 242.358 43.3481 242.558C43.2481 242.658 43.1481 242.858 42.9481 242.958C42.6481 243.158 42.2481 243.158 41.9481 243.058C41.6481 242.958 41.3481 242.658 41.3481 242.358C41.3481 241.958 41.4481 241.658 41.5481 241.258Z" fill="#1B1A42"/>
<path d="M37.148 240.858C37.148 240.758 37.248 240.558 37.248 240.458C37.248 240.358 37.348 240.358 37.348 240.358C37.448 240.258 37.448 240.158 37.548 240.058C37.648 239.958 37.748 239.758 37.748 239.558C37.848 239.258 37.948 238.858 38.048 238.458C38.048 238.258 38.348 237.958 38.548 237.858C38.748 237.758 38.948 237.658 39.248 237.758C39.448 237.758 39.648 237.858 39.848 238.058C40.048 238.258 40.148 238.558 40.148 238.758C40.048 239.258 39.948 239.758 39.748 240.258C39.648 240.558 39.548 240.858 39.348 241.058C39.248 241.158 39.248 241.258 39.148 241.358C39.048 241.458 39.048 241.558 38.948 241.558C38.848 241.658 38.748 241.758 38.548 241.858C38.448 241.858 38.348 241.958 38.348 241.958C38.248 241.958 38.148 241.958 38.048 241.958C37.848 241.958 37.548 241.858 37.448 241.758C37.348 241.658 37.248 241.558 37.148 241.358C37.148 241.358 37.048 241.058 37.148 240.858Z" fill="#1B1A42"/>
<path d="M32.2482 239.858C32.3482 239.358 32.6482 238.958 32.8482 238.558C33.0482 238.258 33.1482 237.958 33.2482 237.658C33.2482 237.558 33.3482 237.458 33.3482 237.258C33.4482 237.058 33.5482 236.758 33.8482 236.658C34.0482 236.558 34.2482 236.558 34.4482 236.558C34.6482 236.558 34.8482 236.658 35.0482 236.858C35.2482 237.058 35.3482 237.258 35.3482 237.558C35.2482 238.158 35.1482 238.658 35.0482 239.258C34.9482 239.858 34.8482 240.458 34.5482 240.858C34.2482 241.358 33.5482 241.658 32.9482 241.358C32.3482 241.158 32.0482 240.558 32.2482 239.858Z" fill="#1B1A42"/>
<path d="M27.648 238.658C27.648 238.558 27.648 238.458 27.748 238.358C27.748 238.158 27.948 237.958 28.048 237.858C28.148 237.758 28.148 237.558 28.248 237.458C28.448 237.058 28.548 236.558 28.648 236.158C28.648 236.258 28.648 236.258 28.648 236.358C28.648 236.158 28.648 236.058 28.748 235.858C28.848 235.658 28.848 235.558 29.048 235.458C29.248 235.258 29.648 235.058 29.948 235.058C30.248 235.058 30.648 235.158 30.848 235.458C31.048 235.658 31.248 236.058 31.248 236.358C31.148 236.958 31.048 237.558 30.848 238.158C30.748 238.458 30.548 238.858 30.448 239.158C30.348 239.258 30.348 239.358 30.248 239.458C30.048 239.758 29.848 239.858 29.548 240.058C29.348 240.158 29.148 240.258 28.948 240.258C28.648 240.258 28.448 240.158 28.248 240.058C27.748 239.558 27.548 239.158 27.648 238.658Z" fill="#1B1A42"/>
</svg>
