<svg width="156" height="161" viewBox="0 0 156 161" fill="none" xmlns="http://www.w3.org/2000/svg">
<path d="M52.5256 18.3525L156 54.0459L121.29 160.453L17.8159 124.759L52.5256 18.3525Z" fill="#B9BEBE"/>
<path d="M59.4014 34.0908L140.96 61.4301L116.791 137.675L35.2324 110.336L59.4014 34.0908Z" fill="white"/>
<path d="M26.825 7.12646L134.119 27.4425L114.363 137.778L7.06885 117.462L26.825 7.12646Z" fill="#CDCFCF"/>
<path d="M35.9392 21.8232L120.413 37.2567L106.77 116.228L22.2954 100.794L35.9392 21.8232Z" fill="white"/>
<path d="M0 0H109.15V112.243H0V0Z" fill="#DBDCDC"/>
<path d="M11.6948 12.0259H97.4556V92.1997H11.6948V12.0259Z" fill="#4CAF50"/>
<rect width="86.3605" height="86.3605" transform="translate(11.3633 8.71191)" fill="white"/>
<g clip-path="url(#clip0)">
<path d="M54.5434 85.6005C73.1601 85.6005 88.2518 70.5087 88.2518 51.892C88.2518 33.2754 73.1601 18.1836 54.5434 18.1836C35.9267 18.1836 20.835 33.2754 20.835 51.892C20.835 70.5087 35.9267 85.6005 54.5434 85.6005Z" fill="#D9D9D9"/>
<path d="M54.5436 75.1394C67.3827 75.1394 77.7908 64.7313 77.7908 51.8922C77.7908 39.0531 67.3827 28.645 54.5436 28.645C41.7045 28.645 31.2964 39.0531 31.2964 51.8922C31.2964 64.7313 41.7045 75.1394 54.5436 75.1394Z" fill="#F7E4BA"/>
<path d="M30.0587 43.7383C30.0081 44.35 30.08 44.9656 30.2702 45.5493C26.7884 46.5185 24.7516 50.1268 25.7209 53.6086C26.2269 55.4267 27.4935 56.9378 29.195 57.754C28.9056 58.2944 28.727 58.8872 28.6696 59.4976C28.5095 62.2621 30.6176 64.6343 33.3818 64.8003C34.1614 64.8648 34.9457 64.7586 35.6798 64.4888L39.5052 54.3623L39.4331 46.0805L37.8383 40.0536C37.1629 39.6584 36.4091 39.4156 35.6299 39.3423C32.878 39.0196 30.3848 40.9869 30.0587 43.7383Z" fill="#6B9777"/>
<path d="M76.6279 34.4566C76.6363 31.8971 74.5682 29.8154 72.0088 29.8072C70.3049 29.8016 68.7355 30.7314 67.9218 32.2283C62.178 29.31 55.156 31.6005 52.2376 37.3443C49.3193 43.0881 51.6098 50.1101 57.3536 53.0285C63.0974 55.9469 70.1194 53.6563 73.0378 47.9125C74.4771 45.0798 74.6985 41.7827 73.6511 38.7829C75.4424 38.0951 76.6256 36.3755 76.6279 34.4566Z" fill="#EBEBEB"/>
<path d="M61.5177 47.8235C64.4065 47.8235 66.7483 45.4817 66.7483 42.5929C66.7483 39.7041 64.4065 37.3623 61.5177 37.3623C58.6289 37.3623 56.2871 39.7041 56.2871 42.5929C56.2871 45.4817 58.6289 47.8235 61.5177 47.8235Z" fill="#FBB540"/>
<path d="M44.0821 76.3014C50.5016 76.3014 55.7057 71.0973 55.7057 64.6778C55.7057 58.2583 50.5016 53.0542 44.0821 53.0542C37.6626 53.0542 32.4585 58.2583 32.4585 64.6778C32.4585 71.0973 37.6626 76.3014 44.0821 76.3014Z" fill="#F7BA61"/>
<path d="M38.2705 54.2164C40.8383 54.2164 42.92 52.1347 42.92 49.5669C42.92 46.9991 40.8383 44.9175 38.2705 44.9175C35.7027 44.9175 33.6211 46.9991 33.6211 49.5669C33.6211 52.1347 35.7027 54.2164 38.2705 54.2164Z" fill="#DC4D41"/>
<path d="M38.9795 44.5455C41.5473 44.5455 43.629 42.4638 43.629 39.896C43.629 37.3282 41.5473 35.2466 38.9795 35.2466C36.4117 35.2466 34.3301 37.3282 34.3301 39.896C34.3301 42.4638 36.4117 44.5455 38.9795 44.5455Z" fill="#DC4D41"/>
<path d="M78.7284 56.725C78.0865 56.7253 77.5657 56.2052 77.5654 55.5632C77.5654 55.5188 77.5679 55.4743 77.573 55.4302L78.2623 49.4347C78.3349 48.7969 78.9109 48.3387 79.5487 48.4114C79.7572 48.4351 79.9552 48.5148 80.122 48.642L85.4689 52.7102C85.9798 53.0989 86.0788 53.8283 85.69 54.3391C85.5459 54.5286 85.3469 54.6692 85.1202 54.742L79.0829 56.6716C78.9684 56.7083 78.8487 56.7265 78.7284 56.725Z" fill="#8F563B"/>
<path d="M58.7995 82.4723C58.4092 82.4721 58.0451 82.276 57.8301 81.9504L54.4976 76.9185C54.1431 76.3832 54.2897 75.662 54.8248 75.3076C54.999 75.1923 55.2013 75.1259 55.4101 75.1157L62.1204 74.7856C62.7615 74.7543 63.3067 75.2488 63.3379 75.89C63.3496 76.1287 63.2872 76.3654 63.1595 76.5675L59.7887 81.9295C59.5786 82.2631 59.2136 82.4675 58.8193 82.4723H58.7995Z" fill="#8F563B"/>
<path d="M46.4072 58.8657H48.732V61.1904H46.4072V58.8657Z" fill="#F26B32"/>
<path d="M49.894 62.3525H52.2188V64.6773H49.894V62.3525Z" fill="#F26B32"/>
<path d="M46.4072 67.0024H48.732V69.3272H46.4072V67.0024Z" fill="#F26B32"/>
<path d="M37.1084 67.0024H39.4331V69.3272H37.1084V67.0024Z" fill="#F26B32"/>
<path d="M39.4331 58.8657H41.7578V61.1904H39.4331V58.8657Z" fill="#F26B32"/>
<path d="M41.7578 70.4888H44.0825V72.8135H41.7578V70.4888Z" fill="#F26B32"/>
<path d="M41.7578 63.5151H44.0825V65.8399H41.7578V63.5151Z" fill="#F26B32"/>
<path d="M64.3615 77.7859C63.1357 77.7878 61.9726 77.2438 61.1883 76.3016L61.1801 76.2923C59.696 74.5209 59.929 71.8816 61.7004 70.3974C61.8071 70.308 61.9182 70.224 62.0333 70.1457L64.68 67.9849C67.6347 65.5795 70.0375 62.5669 71.7251 59.151L72.92 56.7426C73.8743 54.5541 76.4219 53.5536 78.6103 54.5079C80.7987 55.4622 81.7992 58.0098 80.8449 60.1983L79.2502 63.561C77.185 67.9066 74.0762 71.6735 70.2012 74.5255L66.6549 77.1257C65.9662 77.5536 65.1723 77.7821 64.3615 77.7859Z" fill="#8F563B"/>
</g>
<defs>
<clipPath id="clip0">
<rect width="67.4169" height="67.4169" fill="white" transform="translate(20.835 18.1836)"/>
</clipPath>
</defs>
</svg>
