<svg width="53" height="43" viewBox="0 0 53 43" fill="none" xmlns="http://www.w3.org/2000/svg">
<path d="M49.8498 20.0713H3L10.2827 37.0393V37.1144C10.2827 39.2917 17.4904 41.0186 26.2748 41.0186C35.1342 41.0186 42.3419 39.2917 42.3419 37.1144V36.9643L49.8498 20.0713Z" fill="#F0F0F0"/>
<path d="M26.5002 40.9435C35.3597 40.9435 42.4172 39.2166 42.4172 37.1144C42.4172 37.1144 42.3421 37.0393 42.3421 36.9643L50.0002 20.0713H3.15039" fill="#F0F0F0"/>
<path d="M26.5 25.7774C39.4787 25.7774 50 23.2227 50 20.0713C50 16.9199 39.4787 14.3652 26.5 14.3652C13.5213 14.3652 3 16.9199 3 20.0713C3 23.2227 13.5213 25.7774 26.5 25.7774Z" fill="#F0F0F0"/>
<path d="M26.5 14.3652C39.4888 14.3652 50 16.9179 50 20.0713C50 23.2246 39.4888 25.7774 26.5 25.7774" fill="#F0F0F0"/>
<path d="M26.4999 17.4434C15.7635 17.4434 7.0542 19.5456 7.0542 22.0983C7.0542 22.6239 7.35452 23.0743 7.95516 23.5248C12.2347 24.8763 18.9168 25.7021 26.4999 25.7021C34.083 25.7021 40.69 24.8763 45.0446 23.5248C45.6453 23.0743 45.9456 22.6239 45.9456 22.0983C45.9456 19.5456 37.2363 17.4434 26.4999 17.4434Z" fill="#F0F0F0"/>
<path d="M26.5 25.7021C34.008 25.7021 40.6901 24.8763 45.0447 23.5248C45.6454 23.0743 45.9457 22.6239 45.9457 22.0983C45.9457 19.4705 37.2364 17.4434 26.5 17.4434" fill="#F0F0F0"/>
<path d="M34.3083 22.2487C37.2109 22.2487 39.5639 21.7781 39.5639 21.1976C39.5639 20.6171 37.2109 20.1465 34.3083 20.1465C31.4057 20.1465 29.0527 20.6171 29.0527 21.1976C29.0527 21.7781 31.4057 22.2487 34.3083 22.2487Z" fill="#F0F0F0"/>
<path d="M23.1963 38.8413L20.043 33.5857L23.1963 28.3301H29.428L32.5813 33.5857L29.428 38.8413H23.1963Z" fill="#F0F0F0"/>
<path d="M23.4219 28.3301H29.4283L32.5816 33.5857L29.4283 38.8413" fill="#F0F0F0"/>
<path d="M36.0353 20.8224C36.4858 19.3208 36.9363 17.8192 37.4618 16.1674C40.5401 6.78243 43.6184 3.10352 40.5401 2.12748C37.4618 1.15144 37.7622 5.80639 34.6839 15.1914C34.0082 17.2185 33.3325 19.2457 32.6567 20.7473H36.0353V20.8224Z" fill="#F0F0F0"/>
<path d="M38.329 4.44888C37.9704 5.50945 38.0299 6.48764 38.462 6.63374C38.8941 6.77983 39.5351 6.03851 39.8937 4.97794C40.2523 3.91738 40.1927 2.93918 39.7606 2.79309C39.3285 2.64699 38.6876 3.38832 38.329 4.44888Z" fill="#F0F0F0"/>
<path d="M15.8385 18.1943C12.535 18.7199 9.98231 19.4707 8.48072 20.3717L7.12928 21.7231C7.0542 21.8732 7.0542 22.0234 7.0542 22.1736C7.0542 22.6991 7.35452 23.1496 7.95516 23.6001C11.6341 24.7263 17.0398 25.5522 23.2715 25.7023L15.8385 18.1943Z" fill="#F0F0F0"/>
<path d="M13.9615 23.0747C16.4391 23.0747 18.7666 20.2968 18.8416 17.8942C18.9167 13.6898 15.1627 12.3383 13.6611 8.80957" fill="#F0F0F0"/>
<path d="M14.1868 22.6993V22.7744L14.1118 22.8495C11.484 21.3479 9.30665 19.9214 9.08141 17.5188C8.63093 13.3144 12.1597 12.2632 13.6613 8.80957" fill="#F0F0F0"/>
<path d="M14.1119 22.9246C14.8627 20.6722 15.3883 18.2696 13.8867 16.6929C11.2589 13.915 8.25567 15.792 4.95215 14.5156" fill="#F0F0F0"/>
<path d="M14.1118 22.9245C11.4089 23.6753 9.08143 24.2008 7.35459 22.7743C4.35139 20.2967 6.30347 17.5187 4.87695 14.4404" fill="#F0F0F0"/>
<path d="M26.1199 18.5089C26.1078 18.2189 24.6539 18.0441 22.8725 18.1184C21.0912 18.1928 19.6569 18.4881 19.669 18.7781C19.6811 19.0681 21.135 19.243 22.9164 19.1686C24.6977 19.0943 26.132 18.7989 26.1199 18.5089Z" fill="#F0F0F0"/>
</svg>
